<svg preserveAspectRatio="none" width="100%" height="100%" overflow="visible" style="display: block;" viewBox="0 0 24 24" fill="none" xmlns="http://www.w3.org/2000/svg">
<g id="Linkedin">
<circle id="Ellipse 3787" cx="12" cy="12" r="10" fill="var(--fill-0, white)" stroke="var(--stroke-0, white)"/>
<path id="Vector" d="M17 12.859V16.556H14.857V13.106C14.857 12.24 14.547 11.649 13.771 11.649C13.179 11.649 12.826 12.047 12.671 12.433C12.615 12.571 12.6 12.763 12.6 12.955V16.556H10.456C10.456 16.556 10.485 10.714 10.456 10.109H12.6V11.022L12.586 11.043H12.6V11.022C12.885 10.582 13.393 9.957 14.532 9.957C15.942 9.957 17 10.879 17 12.859ZM8.213 7C7.48 7 7 7.482 7 8.114C7 8.734 7.466 9.229 8.185 9.229H8.199C8.947 9.229 9.412 8.733 9.412 8.114C9.398 7.482 8.947 7 8.213 7ZM7.127 16.556H9.271V10.109H7.127V16.556Z" fill="var(--fill-0, white)"/>
</g>
</svg>
