<svg preserveAspectRatio="none" width="100%" height="100%" overflow="visible" style="display: block;" viewBox="0 0 169.562 59.4087" fill="none" xmlns="http://www.w3.org/2000/svg">
<g id="JI_White_Logo 1">
<path id="Vector" d="M21.1631 9.35205C11.2227 9.35205 3.16406 17.1651 3.16406 26.8028C3.16406 36.4404 11.2227 44.2535 21.1631 44.2535C31.1035 44.2535 39.1625 36.4406 39.1625 26.8028C39.1625 17.1649 31.1038 9.35205 21.1631 9.35205Z" fill="var(--fill-0, #DF0F14)"/>
<path id="Vector_2" d="M15.8769 19.8749H15.2761C14.1371 19.8749 13.5154 20.4979 13.5154 21.7425V27.7475C13.5154 29.2936 12.9766 29.8364 11.7131 29.8364C10.7188 29.8364 9.91105 29.4142 9.2692 28.6512C9.20703 28.5709 7.90234 29.1729 7.90234 30.6593C7.90234 32.2663 9.45569 33.25 12.3347 33.25C15.8355 33.25 17.6789 31.5432 17.6789 27.8076V21.7423C17.6789 20.4977 17.0576 19.8747 15.8769 19.8747M21.2997 22.9076H20.8857C19.8707 22.9076 19.1043 23.3693 19.1043 24.7752V31.2017C19.1043 32.6277 19.8505 33.0696 20.9271 33.0696H21.3415C22.3567 33.0696 23.0813 32.5874 23.0813 31.2017V24.7752C23.0813 23.3297 22.3775 22.9076 21.2999 22.9076H21.2997ZM21.072 18.2485C19.7876 18.2485 18.9802 18.9513 18.9802 20.0561C18.9802 21.1609 19.8085 21.8832 21.134 21.8832C22.4595 21.8832 23.2264 21.1805 23.2264 20.0561C23.2264 18.9317 22.3979 18.2485 21.072 18.2485ZM29.8258 22.8069C26.428 22.8069 24.1706 24.8956 24.1706 28.0082C24.1706 31.1208 26.3454 33.2502 29.7633 33.2502C33.1812 33.2502 35.3975 31.2017 35.3975 28.0285C35.3975 24.8553 33.181 22.8069 29.8258 22.8069ZM29.7841 30.2979C28.458 30.2979 27.5467 29.3543 27.5467 28.0082C27.5467 26.6621 28.479 25.7394 29.7841 25.7394C31.0891 25.7394 32.0208 26.6834 32.0208 28.0285C32.0208 29.3737 31.0684 30.2979 29.7841 30.2979Z" fill="var(--fill-0, white)"/>
<path id="Vector_3" d="M47.3395 18.8809H42.2852V34.655H47.3395V18.8809Z" fill="var(--fill-0, white)"/>
<path id="Vector_4" d="M55.6587 23.2853V24.1254H55.7549C56.6051 22.403 65.9894 22.1546 66.5935 26.0324C66.7745 26.6111 66.8658 27.2519 66.8658 27.9552V34.9431H62.3189V28.5267C62.3189 27.5893 62.1052 26.8894 61.6784 26.4281C61.2512 25.9666 60.4937 25.7358 59.405 25.7358C58.1666 25.7358 57.2702 25.9884 56.7153 26.494C56.1598 26.9994 55.8826 27.831 55.8826 28.988V34.9433H51.3359V23.2856H55.6587V23.2853Z" fill="var(--fill-0, white)"/>
<path id="Vector_5" d="M74.2422 31.8207C74.4458 32.0638 74.7092 32.2623 75.031 32.4171C75.353 32.5718 75.7229 32.6861 76.1413 32.7597C76.5598 32.8335 76.9948 32.8704 77.4452 32.8704C77.7672 32.8704 78.105 32.8445 78.4593 32.7929C78.8134 32.7414 79.1352 32.6604 79.425 32.55C79.7149 32.4391 79.9561 32.2922 80.1492 32.1081C80.3425 31.924 80.4391 31.6919 80.4391 31.412C80.4391 30.9408 79.983 30.5874 79.0709 30.3517C78.1583 30.1163 76.8869 29.8805 75.2562 29.6447C74.5906 29.542 73.9414 29.4203 73.3084 29.28C72.675 29.1402 72.112 28.9563 71.6182 28.7277C71.1239 28.4996 70.7273 28.2124 70.4271 27.8661C70.1265 27.5205 69.9765 27.0967 69.9765 26.5959C69.9765 25.8595 70.1858 25.2559 70.6041 24.7843C71.0227 24.313 71.5752 23.9413 72.262 23.6685C72.9486 23.3961 73.7212 23.2045 74.5796 23.0942C75.438 22.9836 76.3181 22.9284 77.2196 22.9284C78.1211 22.9284 78.9955 22.9876 79.8433 23.1052C80.691 23.2234 81.4475 23.4219 82.113 23.7015C82.7779 23.9816 83.3306 24.3535 83.7708 24.8173C84.2107 25.2811 84.4735 25.8666 84.5597 26.5735H80.2137C80.1491 25.9698 79.8159 25.5611 79.2155 25.3475C78.6146 25.134 77.9062 25.0272 77.0909 25.0272C76.8332 25.0272 76.5543 25.0382 76.2537 25.0602C75.9531 25.0822 75.6793 25.1304 75.4331 25.2038C75.186 25.2777 74.9766 25.3843 74.8052 25.524C74.6331 25.664 74.5479 25.852 74.5479 26.0874C74.5479 26.3675 74.6977 26.5955 74.9985 26.7723C75.2991 26.9489 75.6906 27.0925 76.1736 27.203C76.6564 27.3135 77.2085 27.4129 77.8314 27.5014C78.4536 27.5897 79.087 27.6855 79.7309 27.7885C80.3958 27.8918 81.0452 28.0171 81.6786 28.164C82.3114 28.3117 82.8746 28.5068 83.3687 28.7493C83.8621 28.9926 84.2591 29.2945 84.5599 29.6554C84.8603 30.0162 85.0105 30.4616 85.0105 30.9919C85.0105 31.743 84.7904 32.3726 84.3507 32.8808C83.9105 33.389 83.3364 33.7977 82.6283 34.1069C81.9197 34.4161 81.1097 34.6337 80.1978 34.7587C79.2852 34.8836 78.3571 34.9463 77.4131 34.9463C76.4691 34.9463 75.5026 34.8801 74.5798 34.7475C73.6572 34.6152 72.8362 34.3943 72.1171 34.0849C71.3981 33.7757 70.808 33.367 70.3466 32.8588C69.885 32.3506 69.6331 31.7139 69.5901 30.9476H73.9363C73.9363 31.2869 74.0381 31.5776 74.2422 31.8207Z" fill="var(--fill-0, white)"/>
<path id="Vector_6" d="M96.8129 23.2339V25.3328H93.4651V30.9888C93.4651 31.5189 93.5936 31.8725 93.8513 32.0491C94.1086 32.2259 94.6237 32.3141 95.3965 32.3141C95.6538 32.3141 95.9002 32.307 96.1368 32.292C96.3724 32.2777 96.5978 32.2553 96.8127 32.2259V34.6561C96.4261 34.7 95.997 34.7297 95.5252 34.7442C95.0526 34.7588 94.5916 34.7663 94.1406 34.7663C93.4328 34.7663 92.7616 34.7332 92.1288 34.6669C91.4957 34.6006 90.9375 34.4718 90.4549 34.2803C89.972 34.0891 89.5907 33.8163 89.3122 33.4629C89.0329 33.1094 88.8935 32.6455 88.8935 32.0711V25.3328H86.125V23.2339H88.8935V20.2492L93.4651 19.8096V23.2338L96.8129 23.2339Z" fill="var(--fill-0, white)"/>
<path id="Vector_7" d="M103.712 23.2378H99.1406V34.6599H103.712V23.2378Z" fill="var(--fill-0, white)"/>
<path id="Vector_8" d="M116.453 23.2338V25.3326H113.105V30.9886C113.105 31.5187 113.234 31.8723 113.492 32.0489C113.749 32.2257 114.264 32.314 115.037 32.314C115.294 32.314 115.541 32.3068 115.777 32.2918C116.013 32.2775 116.238 32.2552 116.453 32.2257V34.6559C116.067 34.6998 115.638 34.7295 115.166 34.744C114.693 34.7586 114.232 34.7662 113.781 34.7662C113.073 34.7662 112.402 34.733 111.769 34.6667C111.136 34.6004 110.578 34.4716 110.096 34.2802C109.613 34.0889 109.231 33.8161 108.953 33.4628C108.674 33.1092 108.534 32.6454 108.534 32.0709V25.3326H105.766V23.2338H108.534L108.547 20.2509L113.106 19.8096V23.2338H116.453H116.453Z" fill="var(--fill-0, white)"/>
<path id="Vector_9" d="M129.912 34.4094V33.5479H129.816C129.437 35.1204 123.639 34.9168 121.719 34.3643C120.935 34.139 120.319 33.8199 119.868 33.4064C119.417 32.9933 119.1 32.4903 118.918 31.8966C118.736 31.3032 118.645 30.6459 118.645 29.9247V22.7587H123.216V29.3389C123.216 30.3006 123.43 31.0176 123.86 31.491C124.289 31.9642 125.051 32.2009 126.145 32.2009C127.39 32.2009 128.291 31.9418 128.849 31.4236C129.407 30.9053 129.687 30.0528 129.687 28.8659V22.7589H134.258V34.4094H129.912Z" fill="var(--fill-0, white)"/>
<path id="Vector_10" d="M153.96 31.9203C154.646 32.3768 155.633 32.6051 156.921 32.6051C157.844 32.6051 158.638 32.4472 159.304 32.1302C159.969 31.8137 160.376 31.4785 160.527 31.1247H164.552C163.907 32.4946 162.92 33.4741 161.59 34.0631C160.259 34.6522 158.649 34.9466 156.76 34.9466C155.451 34.9466 154.271 34.8032 153.22 34.5159C152.168 34.2289 151.277 33.82 150.547 33.2897C149.818 32.7595 149.254 32.1266 148.857 31.3898C148.46 30.6534 148.262 29.8433 148.262 28.9596C148.262 28.0759 148.465 27.3103 148.874 26.5735C149.281 25.8371 149.86 25.2003 150.612 24.6625C151.363 24.1252 152.259 23.7013 153.3 23.3922C154.341 23.0828 155.494 22.9282 156.761 22.9282C158.178 22.9282 159.411 23.116 160.463 23.4915C161.514 23.8671 162.379 24.3719 163.055 25.0051C163.731 25.6383 164.219 26.3603 164.519 27.17C164.82 27.9802 164.927 28.827 164.841 29.7107H152.834C152.898 30.7268 153.273 31.4636 153.96 31.9199M159.127 25.9109C158.579 25.4989 157.747 25.2925 156.632 25.2925C155.902 25.2925 155.296 25.3773 154.813 25.5466C154.33 25.716 153.944 25.9258 153.654 26.1762C153.364 26.4268 153.16 26.6919 153.042 26.9714C152.924 27.2513 152.854 27.5018 152.833 27.7225H160.269C160.055 26.9271 159.674 26.3235 159.127 25.9107V25.9109Z" fill="var(--fill-0, white)"/>
<path id="Vector_11" d="M103.415 20.9513C103.222 21.1783 102.951 21.3576 102.602 21.4899C102.253 21.6222 101.859 21.6883 101.418 21.6883C100.978 21.6883 100.583 21.6222 100.234 21.4899C99.8854 21.3576 99.6146 21.1781 99.4219 20.9513C99.2292 20.7245 99.1328 20.4666 99.1328 20.1766C99.1328 19.8866 99.2292 19.6285 99.4219 19.4019C99.6144 19.1751 99.8854 18.9956 100.234 18.8631C100.583 18.7307 100.978 18.6647 101.418 18.6647C101.859 18.6647 102.253 18.7309 102.602 18.8631C102.951 18.9954 103.222 19.1749 103.415 19.4019C103.608 19.6287 103.704 19.8868 103.704 20.1766C103.704 20.4664 103.608 20.7245 103.415 20.9513Z" fill="var(--fill-0, white)"/>
<path id="Vector_12" d="M146.891 23.2338V25.3326H143.543V30.9886C143.543 31.5187 143.672 31.8723 143.93 32.0489C144.187 32.2257 144.702 32.314 145.475 32.314C145.732 32.314 145.979 32.3068 146.215 32.2918C146.451 32.2775 146.676 32.2552 146.891 32.2257V34.6559C146.504 34.6998 146.075 34.7295 145.603 34.744C145.131 34.7586 144.67 34.7662 144.219 34.7662C143.511 34.7662 142.84 34.733 142.207 34.6667C141.574 34.6004 141.016 34.4716 140.533 34.2802C140.05 34.0889 139.669 33.8161 139.39 33.4628C139.111 33.1092 138.972 32.6454 138.972 32.0709V25.3326H136.203V23.2338H138.972L138.984 20.2509L143.543 19.8096V23.2338H146.891Z" fill="var(--fill-0, white)"/>
</g>
</svg>
