<svg preserveAspectRatio="none" width="100%" height="100%" overflow="visible" style="display: block;" viewBox="0 0 52.8546 16.6579" fill="none" xmlns="http://www.w3.org/2000/svg">
<g id="Wordmark">
<path id="Vector" d="M0 0H3.16512L8.54698 9.95963L13.9288 8.40656e-06H17.0254V16.3655H14.443V3.82258L9.7239 12.508H7.30148L2.58236 3.82258V16.3655H0V0Z" fill="var(--fill-0, white)"/>
<path id="Vector_2" d="M25.3495 16.6577C24.1535 16.6577 23.1023 16.3869 22.1959 15.8453C21.2893 15.3037 20.5827 14.5536 20.0763 13.595C19.5696 12.6365 19.3163 11.5376 19.3164 10.2986C19.3164 9.04393 19.564 7.9334 20.0591 6.96699C20.5543 6.00078 21.2417 5.24483 22.1216 4.69912C23.0015 4.15376 24.0127 3.88101 25.1553 3.88086C26.2903 3.88086 27.2672 4.15555 28.0862 4.70494C28.9049 5.25448 29.5353 6.02407 29.9772 7.01372C30.419 8.00352 30.6399 9.1647 30.64 10.4973V11.2219H21.8759C22.0359 12.2196 22.4302 13.0048 23.0586 13.5774C23.687 14.1502 24.4812 14.4366 25.441 14.4366C26.2103 14.4366 26.873 14.3197 27.4292 14.0859C27.9852 13.8521 28.507 13.4976 28.9946 13.0222L30.3658 14.7405C29.0021 16.0188 27.33 16.6578 25.3495 16.6577ZM27.2349 6.94937C26.694 6.38446 25.9855 6.10195 25.1096 6.10185C24.2564 6.10185 23.5422 6.39023 22.9672 6.96699C22.3919 7.5437 22.0282 8.31911 21.8759 9.29323H28.1605C28.0842 8.29568 27.7757 7.51439 27.2349 6.94937Z" fill="var(--fill-0, white)"/>
<path id="Vector_3" d="M33.7713 6.33582H31.3945V4.1732H33.7713V0.596191H36.2622V4.1732H39.8729V6.33582H36.2622V11.8182C36.2622 12.7299 36.4146 13.3806 36.7193 13.7703C37.0238 14.1601 37.5456 14.355 38.2847 14.3548C38.6121 14.3548 38.8901 14.3412 39.1188 14.3139C39.3474 14.2867 39.5987 14.2497 39.8729 14.2028V16.342C39.56 16.4346 39.2412 16.505 38.9188 16.5525C38.55 16.608 38.1776 16.6354 37.8047 16.6343C35.1156 16.6343 33.7711 15.1303 33.7713 12.1222V6.33582Z" fill="var(--fill-0, white)"/>
<path id="Vector_4" d="M52.8546 16.3654H50.4093V14.6587C49.9751 15.2978 49.4228 15.7908 48.7525 16.1375C48.0821 16.4841 47.3203 16.6575 46.4672 16.6577C45.416 16.6577 44.4847 16.383 43.6735 15.8335C42.8622 15.2841 42.2242 14.5282 41.7595 13.5658C41.2948 12.6033 41.0625 11.5025 41.0625 10.2635C41.0625 9.0166 41.2987 7.91385 41.771 6.9552C42.2432 5.99676 42.8964 5.24473 43.7306 4.69912C44.5647 4.15376 45.5226 3.88101 46.6043 3.88086C47.4194 3.88086 48.1507 4.04259 48.7982 4.36605C49.437 4.68216 49.9902 5.15377 50.4093 5.73953V4.17317H52.8546V16.3654ZM50.3636 8.43988C50.0969 7.74628 49.676 7.19878 49.101 6.79739C48.5257 6.39609 47.8611 6.19545 47.1071 6.19545C46.0405 6.19545 45.1911 6.56171 44.559 7.29423C43.9266 8.0268 43.6105 9.01654 43.6106 10.2635C43.6106 11.5183 43.9153 12.5119 44.5247 13.2444C45.1341 13.9769 45.9606 14.3432 47.0043 14.3431C47.7736 14.3431 48.4591 14.1405 49.061 13.7352C49.6627 13.3302 50.0969 12.7847 50.3636 12.0987V8.43988Z" fill="var(--fill-0, white)"/>
</g>
</svg>
