<svg preserveAspectRatio="none" width="100%" height="100%" overflow="visible" style="display: block;" viewBox="0 0 25.3247 17.2166" fill="none" xmlns="http://www.w3.org/2000/svg">
<g id="Symbol">
<path id="Vector" d="M18.1753 0C16.0987 0 14.4755 1.60005 13.006 3.63259C10.9867 1.00227 9.298 0 7.27707 0C3.15688 0 0 5.48558 0 11.2917C0 14.9251 1.71816 17.2166 4.59605 17.2166C6.66736 17.2166 8.15706 16.2176 10.8054 11.4817C10.8054 11.4817 11.9093 9.48733 12.6687 8.11348C12.9349 8.55306 13.2151 9.02671 13.5096 9.53446L14.7515 11.6717C17.1706 15.8131 18.5184 17.2166 20.9608 17.2166C23.7644 17.2166 25.3247 14.8937 25.3247 11.1849C25.3247 5.10563 22.0966 0 18.1753 0ZM8.78588 10.1994C6.63873 13.6427 5.89594 14.4145 4.7005 14.4145C3.47025 14.4145 2.73906 13.3096 2.73906 11.3392C2.73906 7.12413 4.79335 2.81403 7.24226 2.81403C8.5684 2.81403 9.67663 3.59756 11.3741 6.0837C9.76228 8.61301 8.78588 10.1994 8.78588 10.1994ZM16.8895 9.7659L15.4047 7.2325C15.0029 6.56394 14.6167 5.94856 14.2462 5.38636C15.5844 3.27327 16.6883 2.22036 18.0012 2.22036C20.7286 2.22036 22.9106 6.32861 22.9106 11.3749C22.9106 13.2984 22.2948 14.4145 21.0188 14.4145C19.7958 14.4145 19.2116 13.5882 16.8895 9.7659Z" fill="var(--fill-0, white)"/>
</g>
</svg>
