<svg preserveAspectRatio="none" width="100%" height="100%" overflow="visible" style="display: block;" viewBox="0 0 84.8468 29.4199" fill="none" xmlns="http://www.w3.org/2000/svg">
<g id="Logo.svg" clip-path="url(#clip0_3_512)">
<path id="Vector" d="M36.1077 15.0874C36.1077 19.171 32.9914 22.1802 29.1671 22.1802C25.3427 22.1802 22.2265 19.171 22.2265 15.0874C22.2265 10.975 25.3427 7.99464 29.1671 7.99464C32.9914 7.99464 36.1077 10.975 36.1077 15.0874ZM33.0694 15.0874C33.0694 12.5355 31.2633 10.7895 29.1671 10.7895C27.0708 10.7895 25.2647 12.5355 25.2647 15.0874C25.2647 17.6137 27.0708 19.3853 29.1671 19.3853C31.2633 19.3853 33.0694 17.6105 33.0694 15.0874ZM51.0806 15.0874C51.0806 19.171 47.9644 22.1802 44.14 22.1802C40.3157 22.1802 37.1994 19.171 37.1994 15.0874C37.1994 10.9782 40.3157 7.99464 44.14 7.99464C47.9644 7.99464 51.0806 10.975 51.0806 15.0874ZM48.0423 15.0874C48.0423 12.5355 46.2362 10.7895 44.14 10.7895C42.0438 10.7895 40.2377 12.5355 40.2377 15.0874C40.2377 17.6137 42.0438 19.3853 44.14 19.3853C46.2362 19.3853 48.0423 17.6105 48.0423 15.0874ZM65.4297 8.42315V21.1569C65.4297 26.3949 62.4164 28.5342 58.8541 28.5342C55.5008 28.5342 53.4825 26.235 52.7214 24.3547L55.3666 23.2258C55.8376 24.3803 56.9918 25.7425 58.851 25.7425C61.1312 25.7425 62.5443 24.3003 62.5443 21.5854V20.5653H62.4382C61.7582 21.4255 60.4481 22.177 58.7948 22.177C55.3354 22.177 52.1661 19.0879 52.1661 15.113C52.1661 11.1093 55.3354 7.99464 58.7948 7.99464C60.4449 7.99464 61.7551 8.74613 62.4382 9.58076H62.5443V8.42634H65.4297V8.42315ZM62.7595 15.113C62.7595 12.6155 61.1343 10.7895 59.0662 10.7895C56.97 10.7895 55.2138 12.6155 55.2138 15.113C55.2138 17.5849 56.97 19.3853 59.0662 19.3853C61.1343 19.3853 62.7595 17.5849 62.7595 15.113ZM70.1867 0.959439V21.7453H67.2233V0.959439H70.1867ZM81.7346 17.4218L84.0929 19.0335C83.3317 20.1879 81.4976 22.177 78.3283 22.177C74.3979 22.177 71.4625 19.0623 71.4625 15.0842C71.4625 10.8663 74.4228 7.99144 77.9883 7.99144C81.5787 7.99144 83.3349 10.9206 83.9088 12.5036L84.2239 13.3094L74.975 17.2363C75.6831 18.6594 76.7842 19.3853 78.3283 19.3853C79.8755 19.3853 80.9485 18.605 81.7346 17.4218ZM74.4759 14.8699L80.6584 12.2381C80.3184 11.3523 79.2953 10.7352 78.0912 10.7352C76.5471 10.7352 74.3979 12.1326 74.4759 14.8699ZM11.0092 13.2423V10.2331H20.9007C20.9974 10.7576 21.0473 11.3779 21.0473 12.0495C21.0473 14.3071 20.4453 17.0988 18.5051 19.0879C16.6178 21.1025 14.2066 22.177 11.0123 22.177C5.09179 22.177 0.113281 17.2331 0.113281 11.1637C0.113281 5.09422 5.09179 0.150391 11.0123 0.150391C14.2877 0.150391 16.621 1.46789 18.3741 3.18512L16.3028 5.30847C15.0457 4.0997 13.3425 3.15954 11.0092 3.15954C6.68579 3.15954 3.30439 6.7315 3.30439 11.1637C3.30439 15.5959 6.68579 19.1678 11.0092 19.1678C13.8135 19.1678 15.4107 18.0134 16.4338 16.9645C17.2636 16.1139 17.8094 14.8987 18.0247 13.2391L11.0092 13.2423Z" fill="var(--fill-0, white)"/>
</g>
<defs>
<clipPath id="clip0_3_512">
<rect width="84.8468" height="29.4199" fill="white"/>
</clipPath>
</defs>
</svg>
