<svg preserveAspectRatio="none" width="100%" height="100%" overflow="visible" style="display: block;" viewBox="0 0 122.556 32.6661" fill="none" xmlns="http://www.w3.org/2000/svg">
<g id="Logo Alternative.svg">
<path id="Vector" d="M106.917 7.63005L104.302 24.4344C104.292 24.4961 104.296 24.5593 104.312 24.6194C104.329 24.6796 104.358 24.7353 104.398 24.7827C104.438 24.8301 104.487 24.868 104.543 24.8937C104.599 24.9195 104.659 24.9324 104.72 24.9317H107.815C107.925 24.9327 108.031 24.8936 108.114 24.8216C108.198 24.7496 108.253 24.6493 108.271 24.5391L110.886 7.73472C110.896 7.67301 110.892 7.60986 110.876 7.54969C110.859 7.48953 110.83 7.4338 110.79 7.38641C110.75 7.33903 110.7 7.30114 110.645 7.2754C110.589 7.24965 110.529 7.23668 110.467 7.2374H107.372C107.263 7.23518 107.156 7.2738 107.072 7.34606C106.989 7.41831 106.933 7.51926 106.917 7.63005ZM103.612 12.534H100.675C100.566 12.5329 100.46 12.5718 100.377 12.6438C100.294 12.7157 100.238 12.8158 100.221 12.926L100.124 13.5446C100.124 13.5446 97.8428 11.0153 93.8043 12.7246C91.4875 13.7033 90.3753 15.7252 89.902 17.2065C89.902 17.2065 88.4001 21.7085 91.7971 24.1864C91.7971 24.1864 94.9471 26.5697 98.494 24.0398L98.4328 24.4344C98.4186 24.5271 98.4345 24.622 98.478 24.7046C98.5216 24.7872 98.5904 24.8529 98.674 24.8917C98.7294 24.9184 98.79 24.9317 98.8513 24.9317H101.79C101.9 24.9339 102.006 24.8953 102.09 24.8231C102.174 24.7508 102.229 24.6499 102.245 24.5391L104.033 13.0313C104.043 12.9697 104.039 12.9065 104.022 12.8464C104.005 12.7864 103.976 12.7309 103.935 12.684C103.896 12.6362 103.846 12.5979 103.79 12.5719C103.734 12.5458 103.673 12.5333 103.612 12.534ZM99.2907 18.8938C99.1761 19.6979 98.7785 20.4315 98.1726 20.9571C97.5642 21.4847 96.7897 21.7695 95.9921 21.7591C95.6792 21.7628 95.3678 21.7165 95.069 21.6218C93.801 21.2085 93.0774 19.9725 93.2854 18.6325C93.4009 17.8289 93.7988 17.0958 94.4047 16.5706C95.0127 16.0427 95.7865 15.757 96.584 15.7659C96.8969 15.7626 97.2083 15.8094 97.5071 15.9046C98.7828 16.3152 99.5032 17.5532 99.2939 18.8945H99.2907V18.8938ZM83.6086 19.2118C85.2012 19.2118 86.7417 18.6332 87.9516 17.5812C89.159 16.5328 89.9584 15.0761 90.2045 13.4759C90.7189 10.1473 88.1576 7.24206 84.5265 7.24206H78.677C78.5679 7.24099 78.4619 7.28004 78.3786 7.35211C78.2952 7.42417 78.2398 7.52446 78.2227 7.63472L75.6066 24.4391C75.5924 24.5318 75.6083 24.6267 75.6519 24.7093C75.6954 24.7919 75.7643 24.8576 75.8478 24.8964C75.9039 24.9231 75.9639 24.9364 76.0251 24.9364H79.1223C79.2315 24.9375 79.3374 24.8984 79.4208 24.8264C79.5042 24.7543 79.5595 24.654 79.5767 24.5437L80.3446 19.6092C80.3607 19.4983 80.4158 19.3971 80.4996 19.3248C80.5833 19.2524 80.69 19.2136 80.7996 19.2158L83.6086 19.2118ZM86.1993 13.3246C86.0083 14.5553 85.0708 15.4612 83.2775 15.4612H80.9848L81.681 10.986H83.9326C85.7866 10.9893 86.3903 12.0993 86.1993 13.3279V13.3246Z" fill="var(--fill-0, white)"/>
<path id="Vector_2" d="M72.0776 12.8198L68.5352 18.8896L66.7373 12.8644C66.7091 12.7683 66.6512 12.6841 66.5722 12.6245C66.4932 12.565 66.3973 12.5334 66.2992 12.5344H63.1023C63.0196 12.5333 62.9393 12.5627 62.8762 12.6174C62.813 12.672 62.7713 12.7482 62.7588 12.8318C62.751 12.8872 62.7566 12.9437 62.7751 12.9964L65.9967 23.1456L63.0827 27.9281C63.058 27.9675 63.0414 28.0116 63.0339 28.0578C63.0264 28.104 63.0282 28.1512 63.0392 28.1966C63.0502 28.2421 63.0701 28.2847 63.0978 28.322C63.1255 28.3593 63.1603 28.3904 63.2001 28.4135C63.2534 28.4448 63.314 28.4609 63.3755 28.4601H66.8188C66.917 28.4605 67.0137 28.4349 67.0995 28.3858C67.1852 28.3368 67.2572 28.2659 67.3083 28.1801L76.3071 13.0691C76.3397 13.0165 76.3576 12.9557 76.3589 12.8934C76.3602 12.8312 76.3447 12.7697 76.3143 12.7158C76.2839 12.6616 76.2399 12.6168 76.1868 12.586C76.1337 12.5551 76.0735 12.5394 76.0125 12.5404H72.5704C72.4717 12.5395 72.3744 12.5647 72.288 12.6137C72.2017 12.6626 72.1292 12.7336 72.0776 12.8198ZM61.29 12.5344H58.3506C58.2413 12.5334 58.1352 12.5725 58.0517 12.6447C57.9682 12.7169 57.9128 12.8173 57.8956 12.9278L57.8004 13.5457C57.8004 13.5457 55.5175 11.0165 51.479 12.7258C49.1628 13.7044 48.05 15.7264 47.5787 17.2077C47.5787 17.2077 46.0754 21.7096 49.4718 24.1875C49.4718 24.1875 52.6224 26.5708 56.1694 24.0409L56.1081 24.4355C56.0937 24.5283 56.1095 24.6233 56.1531 24.7059C56.1967 24.7886 56.2656 24.8542 56.3493 24.8929C56.4047 24.9195 56.4654 24.9329 56.5266 24.9329H59.4654C59.5745 24.9337 59.6803 24.8945 59.7636 24.8225C59.8469 24.7505 59.9023 24.6503 59.9198 24.5402L61.7079 13.0324C61.7225 12.9396 61.7067 12.8444 61.6631 12.7616C61.6196 12.6789 61.5505 12.6131 61.4667 12.5744C61.4111 12.5482 61.3513 12.5346 61.29 12.5344ZM56.968 18.8956C56.8523 19.6987 56.4546 20.4312 55.8493 20.9563C55.2412 21.4837 54.4674 21.7692 53.67 21.7603C53.3576 21.7638 53.0466 21.7175 52.7482 21.6229C51.481 21.2096 50.758 19.9736 50.966 18.633C51.0818 17.8276 51.4812 17.0932 52.0892 16.5677C52.6995 16.0399 53.4758 15.7555 54.275 15.767C54.5879 15.7637 54.9002 15.8104 55.1987 15.9057C56.4614 16.3164 57.1805 17.5537 56.9719 18.8956H56.968ZM41.2866 19.213C42.8765 19.2121 44.4143 18.6335 45.6256 17.5803C46.8319 16.5319 47.6304 15.0757 47.876 13.4764C48.391 10.1485 45.829 7.24319 42.1993 7.24319H36.3491C36.24 7.24207 36.1341 7.281 36.0506 7.35292C35.9671 7.42484 35.9116 7.52499 35.8941 7.63518L33.2865 24.4349C33.272 24.5277 33.2877 24.6229 33.3313 24.7056C33.3749 24.7884 33.4439 24.8542 33.5277 24.8929C33.5832 24.9189 33.6438 24.9329 33.7051 24.9329H36.8003C36.9096 24.9339 37.0157 24.8948 37.0992 24.8226C37.1827 24.7504 37.2381 24.65 37.2553 24.5395L38.0219 19.605C38.0382 19.4942 38.0934 19.3932 38.1771 19.321C38.2608 19.2487 38.3674 19.2101 38.4769 19.2123L41.2866 19.213ZM43.8772 13.3251C43.6862 14.5557 42.7495 15.4617 40.9561 15.4617H38.6634L39.3583 10.9865H41.6099C43.4646 10.9898 44.0676 12.1004 43.8772 13.3284V13.3251Z" fill="var(--fill-0, white)"/>
<path id="Vector_3" d="M21.2771 8.10604C21.3468 4.39544 18.354 1.54883 14.2385 1.54883H5.72608C5.52771 1.54873 5.33583 1.62108 5.185 1.75284C5.03417 1.88459 4.9343 2.0671 4.90339 2.26748L1.49267 24.0624C1.47741 24.1612 1.48326 24.2622 1.50982 24.3584C1.53638 24.4546 1.58302 24.5438 1.64652 24.6198C1.71003 24.6959 1.78889 24.7569 1.87768 24.7988C1.96647 24.8407 2.06308 24.8624 2.16086 24.8624H7.20393L6.41579 29.909C6.40053 30.0077 6.40638 30.1087 6.43294 30.2049C6.4595 30.3012 6.50614 30.3904 6.56964 30.4664C6.63315 30.5424 6.71201 30.6035 6.8008 30.6454C6.88959 30.6872 6.9862 30.7089 7.08398 30.709H11.1922C11.3904 30.709 11.5671 30.6363 11.7183 30.505C11.8682 30.373 11.893 30.191 11.9243 29.9903L13.1303 22.7344C13.161 22.5344 13.2607 22.2744 13.4113 22.1424C13.5619 22.0105 13.6936 21.9385 13.8924 21.9385H16.4061C20.4368 21.9385 23.856 19.0085 24.4811 14.9339C24.9238 12.042 23.7112 9.41068 21.2771 8.10604Z" fill="var(--fill-0, white)"/>
<path id="Vector_4" d="M8.29537 16.8249L7.03917 24.9701L6.25038 30.0794C6.23521 30.1781 6.24116 30.2791 6.2678 30.3753C6.29445 30.4715 6.34116 30.5606 6.40473 30.6366C6.46829 30.7126 6.5472 30.7735 6.63602 30.8153C6.72484 30.8571 6.82145 30.8787 6.91922 30.8787H11.2674C11.4655 30.8786 11.6572 30.8061 11.8078 30.6744C11.9584 30.5426 12.058 30.3602 12.0888 30.16L13.2348 22.7342C13.2657 22.5339 13.3655 22.3515 13.5162 22.2197C13.6668 22.088 13.8586 22.0156 14.0568 22.0155H16.6162C20.6468 22.0155 24.066 19.0089 24.6919 14.9343C25.1351 12.0424 23.7114 9.41041 21.2772 8.10576C21.2707 8.41376 21.2446 8.72109 21.1984 9.02575C20.5732 13.099 17.1527 16.1063 13.1233 16.1063H9.11741C8.9191 16.1065 8.72737 16.1791 8.57668 16.3109C8.426 16.4428 8.32625 16.6246 8.29537 16.8249Z" fill="var(--fill-0, white)"/>
<path id="Vector_5" d="M7.03935 24.9699H1.98063C1.88288 24.9699 1.78628 24.9482 1.69752 24.9063C1.60875 24.8644 1.52992 24.8034 1.46647 24.7273C1.40301 24.6513 1.35644 24.5621 1.32996 24.4658C1.30348 24.3696 1.29773 24.2686 1.31309 24.1699L4.72381 2.05166C4.75471 1.85139 4.85448 1.66898 5.00517 1.53723C5.15587 1.40549 5.3476 1.33307 5.54585 1.33301H14.2395C18.355 1.33301 21.3478 4.39562 21.2781 8.10555C20.2539 7.55623 19.0505 7.24223 17.7324 7.24223H10.4846C10.2862 7.24214 10.0944 7.31448 9.94353 7.44624C9.7927 7.578 9.69284 7.76051 9.66192 7.96089L8.29685 16.8247L7.03869 24.9699H7.03935Z" fill="var(--fill-0, white)" fill-opacity="0.5"/>
</g>
</svg>
