<svg preserveAspectRatio="none" width="100%" height="100%" overflow="visible" style="display: block;" viewBox="0 0 84.8468 29.1477" fill="none" xmlns="http://www.w3.org/2000/svg">
<g id="layer1">
<path id="Shape" d="M4.1486 15.4554C3.32698 15.4554 2.60373 15.2714 1.97883 14.9034C1.35393 14.5236 0.867905 14.0012 0.520743 13.3364C0.173579 12.6599 0 11.8824 0 11.0039C0 9.94745 0.254587 9.02154 0.763762 8.22629C1.2845 7.43093 2.01933 6.81957 2.96824 6.39221C3.92873 5.96496 5.05123 5.75128 6.33574 5.75128C6.92591 5.75128 7.40615 5.79279 7.77647 5.87591V5.502C7.77647 4.59981 7.61445 3.92912 7.29044 3.48992C6.96642 3.03884 6.4746 2.8133 5.81498 2.8133C4.75035 2.8133 4.0676 3.38902 3.76673 4.54045C3.67415 4.87283 3.48321 5.01528 3.1939 4.96779L0.833195 4.54045C0.659605 4.50484 0.538102 4.42769 0.468669 4.30898C0.410811 4.19027 0.405023 4.03003 0.451321 3.82823C0.752195 2.61744 1.38867 1.67966 2.36072 1.01492C3.34435 0.338308 4.57679 0 6.05801 0C7.81697 0 9.15355 0.486689 10.0678 1.46007C10.9935 2.43345 11.4564 3.85196 11.4564 5.71568V14.672C11.4564 14.8025 11.4102 14.9152 11.3176 15.0102C11.2365 15.0933 11.1323 15.1348 11.0051 15.1348H8.74853C8.47079 15.1348 8.29722 14.9805 8.22778 14.672L7.88062 12.9982H7.74175C7.42931 13.7817 6.96064 14.387 6.33574 14.8143C5.72242 15.2417 4.99337 15.4554 4.1486 15.4554ZM3.78408 10.5766C3.78408 11.2058 3.9403 11.7102 4.25275 12.0901C4.57678 12.4581 5.01072 12.6421 5.55461 12.6421C6.27209 12.6421 6.82177 12.3156 7.20364 11.6627C7.58552 10.998 7.77647 10.0483 7.77647 8.81388V7.87012C7.45244 7.81076 7.14578 7.78108 6.85648 7.78108C5.90757 7.78108 5.15538 8.03627 4.59991 8.54676C4.05602 9.04531 3.78408 9.72194 3.78408 10.5766ZM13.6088 0.783443C13.6088 0.652869 13.6493 0.546041 13.7303 0.462945C13.8228 0.367978 13.9328 0.320499 14.0601 0.320499H16.3514C16.4787 0.320499 16.5829 0.362041 16.6638 0.445136C16.7565 0.528232 16.8142 0.640997 16.8374 0.783443L17.1846 2.52841H17.3234C17.6359 1.70935 18.0814 1.08615 18.6601 0.658806C19.2502 0.219595 19.9445 0 20.743 0C21.5994 0 22.3342 0.231467 22.9475 0.694423C23.5724 1.15737 24.0526 1.81619 24.3882 2.67085H24.5271C25.0363 1.7687 25.6091 1.09802 26.2456 0.658806C26.8821 0.219595 27.5937 0 28.3806 0C29.237 0 29.9776 0.237403 30.6025 0.712221C31.2389 1.18705 31.725 1.86366 32.0605 2.74207C32.3961 3.6205 32.564 4.65916 32.564 5.85806V14.672C32.564 14.8025 32.5176 14.9152 32.4251 15.0102C32.344 15.0933 32.2399 15.1348 32.1127 15.1348H29.3353C29.2081 15.1348 29.0981 15.0933 29.0055 15.0102C28.9245 14.9152 28.884 14.8025 28.884 14.672V6.14293C28.884 5.27638 28.722 4.61167 28.398 4.14873C28.0739 3.68578 27.6053 3.45431 26.9919 3.45431C26.3208 3.45431 25.8058 3.72733 25.4471 4.27337C25.1 4.81941 24.9263 5.60879 24.9263 6.64148V14.672C24.9263 14.8025 24.88 14.9152 24.7874 15.0102C24.7065 15.0933 24.6023 15.1348 24.475 15.1348H21.6977C21.5704 15.1348 21.4605 15.0933 21.3679 15.0102C21.2869 14.9152 21.2464 14.8025 21.2464 14.672V6.14293C21.2464 5.27638 21.0844 4.61167 20.7604 4.14873C20.4363 3.68578 19.9677 3.45431 19.3544 3.45431C18.6831 3.45431 18.1682 3.72733 17.8094 4.27337C17.4623 4.81941 17.2887 5.60879 17.2887 6.64148V14.672C17.2887 14.8025 17.2425 14.9152 17.1499 15.0102C17.0689 15.0933 16.9647 15.1348 16.8374 15.1348H14.0601C13.9328 15.1348 13.8228 15.0933 13.7303 15.0102C13.6493 14.9152 13.6088 14.8025 13.6088 14.672V0.783443ZM34.3691 11.0039C34.3691 9.94745 34.6238 9.02154 35.133 8.22629C35.6537 7.43093 36.3885 6.81957 37.3375 6.39221C38.2979 5.96496 39.4205 5.75128 40.7049 5.75128C41.2951 5.75128 41.7754 5.79279 42.1457 5.87591V5.502C42.1457 4.59981 41.9836 3.92912 41.6597 3.48992C41.3356 3.03884 40.8438 2.8133 40.1842 2.8133C39.1196 2.8133 38.4368 3.38902 38.1359 4.54045C38.0433 4.87283 37.8524 5.01528 37.5631 4.96779L35.2024 4.54045C35.0288 4.50484 34.9073 4.42769 34.8379 4.30898C34.78 4.19027 34.7742 4.03003 34.8205 3.82823C35.1213 2.61744 35.7578 1.67966 36.7299 1.01492C37.7135 0.338308 38.946 0 40.4272 0C42.1861 0 43.5227 0.486689 44.437 1.46007C45.3627 2.43345 45.8256 3.85196 45.8256 5.71568V14.672C45.8256 14.8025 45.7793 14.9152 45.6867 15.0102C45.6057 15.0933 45.5016 15.1348 45.3743 15.1348H43.1177C42.84 15.1348 42.6664 14.9805 42.597 14.672L42.2498 12.9982H42.111C41.7985 13.7817 41.3298 14.387 40.7049 14.8143C40.0916 15.2417 39.3626 15.4554 38.5178 15.4554C37.6731 15.4554 36.973 15.2714 36.348 14.9034C35.7231 14.5236 35.2371 14.0012 34.89 13.3364C34.5428 12.6599 34.3691 11.8824 34.3691 11.0039ZM38.1533 10.5766C38.1533 11.2058 38.3095 11.7102 38.6219 12.0901C38.946 12.4581 39.3799 12.6421 39.9238 12.6421C40.6413 12.6421 41.1909 12.3156 41.5729 11.6627C41.9547 10.998 42.1457 10.0483 42.1457 8.81388V7.87012C41.8216 7.81076 41.515 7.78108 41.2256 7.78108C40.2768 7.78108 39.5246 8.03627 38.9691 8.54676C38.4253 9.04531 38.1533 9.72194 38.1533 10.5766ZM47.7003 12.5174C47.7003 12.2563 47.7697 12.0307 47.9086 11.8408L53.8451 3.31186H48.2904C48.1632 3.31186 48.0532 3.27032 47.9606 3.18722C47.8797 3.09225 47.8391 2.97949 47.8391 2.84892V0.783443C47.8391 0.652869 47.8797 0.546041 47.9606 0.462945C48.0532 0.367978 48.1632 0.320499 48.2904 0.320499H57.4208C57.5482 0.320499 57.6523 0.367978 57.7333 0.462945C57.8259 0.546041 57.8721 0.652869 57.8721 0.783443V2.93793C57.8721 3.19909 57.8027 3.42462 57.6638 3.61456L52.2828 11.1997C52.6068 11.1405 52.9367 11.1108 53.2722 11.1108C54.1055 11.1108 54.8692 11.1879 55.5635 11.3422C56.2694 11.4847 56.9984 11.7221 57.7506 12.0545C58.0168 12.1732 58.1498 12.3749 58.1498 12.6599V14.7076C58.1498 14.8975 58.0921 15.028 57.9763 15.0992C57.8606 15.1586 57.7159 15.1527 57.5423 15.0815C56.6745 14.7491 55.9049 14.5176 55.2337 14.387C54.5741 14.2446 53.8508 14.1733 53.0639 14.1733C52.277 14.1733 51.5248 14.2446 50.7726 14.387C50.0321 14.5295 49.2105 14.7609 48.3078 15.0815C48.1342 15.1408 47.9896 15.1408 47.8738 15.0815C47.7582 15.0102 47.7003 14.8855 47.7003 14.7076V12.5174ZM58.9137 7.72763C58.9137 6.27951 59.1856 4.96779 59.7295 3.79261C60.2734 2.60557 61.0197 1.67966 61.9687 1.01492C62.9292 0.338308 63.9938 0 65.1625 0C66.3314 0 67.4076 0.338308 68.3565 1.01492C69.317 1.67966 70.0692 2.60557 70.6131 3.79261C71.1685 4.96779 71.4463 6.27951 71.4463 7.72763C71.4463 9.17586 71.1685 10.4935 70.6131 11.6806C70.0692 12.8557 69.317 13.7817 68.3565 14.4583C67.4076 15.123 66.343 15.4554 65.1625 15.4554C63.9822 15.4554 62.9292 15.123 61.9687 14.4583C61.0197 13.7817 60.2734 12.8557 59.7295 11.6806C59.1856 10.4935 58.9137 9.17586 58.9137 7.72763ZM62.7324 7.72763C62.7324 9.23522 62.9408 10.3986 63.3574 11.2176C63.774 12.0248 64.3756 12.4284 65.1625 12.4284C65.9495 12.4284 66.5571 12.0248 66.9852 11.2176C67.4134 10.3986 67.6274 9.23522 67.6274 7.72763C67.6274 6.22015 67.4134 5.06276 66.9852 4.25557C66.5571 3.4365 65.9495 3.02697 65.1625 3.02697C64.3756 3.02697 63.774 3.4365 63.3574 4.25557C62.9408 5.06276 62.7324 6.22015 62.7324 7.72763ZM73.3209 0.783443C73.3209 0.652869 73.3615 0.546041 73.4425 0.462945C73.5351 0.367978 73.6449 0.320499 73.7722 0.320499H76.0635C76.1908 0.320499 76.295 0.362041 76.376 0.445136C76.4686 0.528232 76.5265 0.640997 76.5495 0.783443L76.8967 2.52841H77.0355C77.3481 1.72122 77.8051 1.09802 78.4069 0.658806C79.0202 0.219595 79.7377 0 80.5593 0C81.4388 0 82.1967 0.237403 82.8332 0.712221C83.4813 1.18705 83.9788 1.86366 84.3261 2.74207C84.6732 3.6205 84.8468 4.65916 84.8468 5.85806V14.672C84.8468 14.8025 84.8004 14.9152 84.7079 15.0102C84.6269 15.0933 84.5227 15.1348 84.3955 15.1348H81.6181C81.4909 15.1348 81.3809 15.0933 81.2883 15.0102C81.2074 14.9152 81.1668 14.8025 81.1668 14.672V6.14293C81.1668 5.27638 80.9932 4.61167 80.6461 4.14873C80.2989 3.68578 79.8071 3.45431 79.1706 3.45431C78.4648 3.45431 77.9266 3.72733 77.5564 4.27337C77.186 4.81941 77.0008 5.60879 77.0008 6.64148V14.672C77.0008 14.8025 76.9546 14.9152 76.862 15.0102C76.781 15.0933 76.6769 15.1348 76.5495 15.1348H73.7722C73.6449 15.1348 73.5351 15.0933 73.4425 15.0102C73.3615 14.9152 73.3209 14.8025 73.3209 14.672V0.783443Z" fill="var(--fill-0, white)"/>
<path id="Path" d="M9.65419 17.1823C9.43432 17.3604 9.38803 17.6571 9.51533 18.0726C9.63105 18.4406 9.90299 18.8975 10.3312 19.4436C12.0554 21.6278 14.1094 23.4439 16.4933 24.8922C18.8772 26.3404 21.4289 27.4087 24.1483 28.0972C26.8793 28.7976 29.6681 29.1477 32.5149 29.1477C36.1601 29.1477 39.6318 28.6017 42.9298 27.5096C46.2278 26.4293 48.982 24.9099 51.1924 22.9513C51.9676 22.251 52.3553 21.6931 52.3553 21.2776C52.3553 21.1233 52.2917 20.9689 52.1644 20.8146C51.9908 20.6366 51.7825 20.5773 51.5395 20.6366C51.2965 20.6959 50.9551 20.8443 50.5153 21.0817C48.3976 22.2213 45.8171 23.1294 42.7736 23.806C39.7417 24.4945 36.5767 24.8387 33.2787 24.8387C29.1938 24.8387 25.2476 24.269 21.4404 23.1294C17.6332 21.9898 14.2599 20.2093 11.3206 17.7877C10.8924 17.4435 10.5452 17.2238 10.2791 17.1288C10.0245 17.0339 9.8162 17.0517 9.65419 17.1823Z" fill="var(--fill-0, white)"/>
<path id="path6" d="M48.2196 18.0737C47.9766 18.3112 47.9129 18.5605 48.0287 18.8217C48.1097 19.0116 48.2659 19.1184 48.4974 19.1421C48.7288 19.1777 49.0586 19.154 49.4867 19.0709C50.1811 18.9166 50.9043 18.8097 51.6565 18.7504C52.4087 18.7029 53.0626 18.7148 53.618 18.786C54.1735 18.8691 54.5206 19.0116 54.6595 19.2133C54.8679 19.5339 54.7926 20.2104 54.4338 21.2432C54.0867 22.2759 53.6122 23.2789 53.0105 24.2524C52.779 24.644 52.6402 24.9527 52.5939 25.1783C52.5476 25.4038 52.6055 25.5937 52.7675 25.748C52.8716 25.8548 52.9873 25.9083 53.1146 25.9083C53.4503 25.9083 53.9363 25.6056 54.5727 25.0002C55.7184 23.9794 56.5226 22.7686 56.9855 21.3679C57.2401 20.6437 57.3963 19.884 57.4542 19.0887C57.512 18.2934 57.4252 17.7236 57.1937 17.3794C56.9739 17.047 56.4879 16.7739 55.7357 16.5603C54.9951 16.3467 54.2487 16.2398 53.4965 16.2398C52.0268 16.2398 50.6324 16.5959 49.3132 17.3082C48.8272 17.5812 48.4627 17.8364 48.2196 18.0737Z" fill="var(--fill-0, white)"/>
</g>
</svg>
