<svg preserveAspectRatio="none" width="100%" height="100%" overflow="visible" style="display: block;" viewBox="0 0 26.9355 33.9503" fill="none" xmlns="http://www.w3.org/2000/svg">
<g id="Group">
<path id="Vector" d="M26.0917 11.583C23.885 12.981 22.522 15.3775 22.522 18.0403C22.522 21.0359 24.2744 23.7652 26.9355 24.8969C26.4162 26.6277 25.6374 28.2253 24.6638 29.6899C23.2359 31.7535 21.7431 33.8837 19.5363 33.8837C17.3296 33.8837 16.6805 32.5523 14.0843 32.5523C11.5531 32.5523 10.6444 33.9503 8.56743 33.9503C6.49048 33.9503 5.06257 32.0198 3.43995 29.6233C1.2981 26.2948 0.0649048 22.4338 0 18.3731C0 11.7827 4.15391 8.25458 8.30781 8.25458C10.5146 8.25458 12.3319 9.7191 13.6949 9.7191C14.993 9.7191 17.07 8.18801 19.5363 8.18801C22.1325 8.12144 24.5989 9.38626 26.0917 11.583ZM18.3681 5.39211C19.4714 4.06072 20.0556 2.39649 20.1205 0.665692C20.1205 0.465984 20.1205 0.199708 20.0556 0C18.1733 0.199708 16.4209 1.13168 15.1877 2.5962C14.0843 3.86101 13.4353 5.45867 13.3704 7.18947C13.3704 7.38918 13.3704 7.58889 13.4353 7.7886C13.5651 7.7886 13.7598 7.85517 13.8896 7.85517C15.6421 7.72203 17.2647 6.79006 18.3681 5.39211Z" fill="var(--fill-0, white)"/>
</g>
</svg>
