<svg preserveAspectRatio="none" width="100%" height="100%" overflow="visible" style="display: block;" viewBox="0 0 134.677 29.4538" fill="none" xmlns="http://www.w3.org/2000/svg">
<g id="Logo.svg" clip-path="url(#clip0_3_586)">
<path id="Vector" d="M47.5427 16.9645L46.74 19.2934H46.6731C46.5393 18.7683 46.294 17.9691 45.8927 17.0102L41.5892 5.93647H37.375V23.5859H40.1622V12.6948C40.1622 12.0099 40.1622 11.2336 40.1399 10.2746C40.1176 9.79514 40.073 9.42982 40.0507 9.15583H40.1176C40.2514 9.8408 40.4075 10.3431 40.519 10.6628L45.692 23.5402H47.6542L52.7826 10.5486C52.8941 10.2518 53.0056 9.65814 53.1171 9.15583H53.184C53.1171 10.4573 53.0725 11.6217 53.0502 12.3295V23.5174H56.0158V5.8908H51.9576L47.5427 16.9645ZM58.8253 10.8683H61.724V23.5174H58.8253V10.8683ZM60.2969 5.52548C59.8064 5.52548 59.405 5.70814 59.0705 6.02779C58.7361 6.34745 58.5577 6.75843 58.5577 7.26074C58.5577 7.74022 58.7361 8.15121 59.0705 8.47086C59.405 8.79051 59.8064 8.95034 60.2969 8.95034C60.7875 8.95034 61.2111 8.76768 61.5233 8.47086C61.8577 8.15121 62.0361 7.74022 62.0361 7.26074C62.0361 6.78126 61.8577 6.37028 61.5233 6.02779C61.2334 5.70814 60.8098 5.52548 60.2969 5.52548ZM72.0031 10.7541C71.468 10.6399 70.9106 10.5714 70.3754 10.5714C69.0599 10.5714 67.8558 10.8683 66.8524 11.4619C65.849 12.0555 65.0463 12.8775 64.5335 13.905C63.9983 14.9553 63.7307 16.1654 63.7307 17.5581C63.7307 18.7683 63.9983 19.8414 64.5112 20.8232C65.024 21.7821 65.7375 22.5584 66.6963 23.0836C67.6105 23.6087 68.6808 23.8827 69.8849 23.8827C71.2673 23.8827 72.4491 23.5859 73.3856 23.0379L73.4079 23.0151V20.2752L73.2964 20.3665C72.8728 20.6862 72.3822 20.9602 71.8917 21.12C71.3788 21.3027 70.9106 21.394 70.5092 21.394C69.3497 21.394 68.4355 21.0515 67.7889 20.298C67.12 19.5674 66.7855 18.5628 66.7855 17.307C66.7855 16.0055 67.12 14.9781 67.8112 14.2246C68.5024 13.4711 69.4166 13.083 70.5315 13.083C71.468 13.083 72.4268 13.4027 73.2964 14.042L73.4079 14.1333V11.2336L73.3856 11.2107C73.0065 11.0509 72.5829 10.8683 72.0031 10.7541ZM81.5688 10.6628C80.8553 10.6628 80.1864 10.8911 79.6066 11.3706C79.1161 11.7816 78.7816 12.3752 78.4917 13.083H78.4694V10.8683H75.5708V23.5174H78.4694V17.0558C78.4694 15.9599 78.6924 15.0466 79.183 14.3844C79.6735 13.6995 80.2978 13.357 81.056 13.357C81.3235 13.357 81.5911 13.4255 81.9256 13.4711C82.2377 13.5625 82.4607 13.6538 82.6168 13.768L82.7283 13.8593V10.8911L82.6614 10.8683C82.4607 10.7313 82.0594 10.6628 81.5688 10.6628ZM89.4622 10.5943C87.4331 10.5943 85.8054 11.2107 84.6682 12.4209C83.5087 13.631 82.9513 15.2977 82.9513 17.3983C82.9513 19.3619 83.531 20.9602 84.6459 22.1246C85.7608 23.2662 87.277 23.8599 89.1723 23.8599C91.1568 23.8599 92.7399 23.2434 93.8771 22.0105C95.0365 20.7775 95.594 19.1336 95.594 17.1015C95.594 15.0922 95.0588 13.494 93.9663 12.3295C92.9183 11.1651 91.3797 10.5943 89.4622 10.5943ZM91.7811 20.3209C91.246 21.0287 90.3987 21.3712 89.3507 21.3712C88.3027 21.3712 87.4554 21.0287 86.8533 20.2752C86.2513 19.5674 85.9614 18.5399 85.9614 17.2385C85.9614 15.8914 86.2736 14.8639 86.8533 14.1333C87.4554 13.4027 88.2804 13.0373 89.3284 13.0373C90.3541 13.0373 91.1568 13.3798 91.7365 14.0876C92.3162 14.7954 92.6284 15.8229 92.6284 17.17C92.5838 18.5399 92.3385 19.6131 91.7811 20.3209ZM102.06 16.1197C101.146 15.7316 100.566 15.4347 100.299 15.1836C100.076 14.9553 99.9643 14.6356 99.9643 14.2246C99.9643 13.8821 100.098 13.5396 100.433 13.3113C100.767 13.083 101.146 12.9688 101.704 12.9688C102.194 12.9688 102.707 13.0602 103.197 13.1972C103.688 13.3342 104.134 13.5396 104.491 13.8136L104.602 13.905V11.1194L104.535 11.0966C104.201 10.9596 103.755 10.8226 103.22 10.7084C102.685 10.6171 102.194 10.5714 101.793 10.5714C100.41 10.5714 99.2731 10.9139 98.3812 11.6674C97.4893 12.3752 97.0656 13.3342 97.0656 14.4529C97.0656 15.0466 97.1548 15.5717 97.3555 16.0055C97.5562 16.4394 97.846 16.8503 98.2474 17.1928C98.6488 17.5125 99.2285 17.8778 100.031 18.2203C100.7 18.5171 101.213 18.7454 101.525 18.9281C101.837 19.1107 102.038 19.3162 102.194 19.4761C102.306 19.6587 102.372 19.887 102.372 20.1839C102.372 21.0287 101.748 21.4396 100.477 21.4396C99.9866 21.4396 99.4738 21.3483 98.8717 21.1428C98.2697 20.9373 97.7123 20.6405 97.244 20.298L97.1325 20.2067V23.1064L97.1994 23.1292C97.6231 23.3347 98.1359 23.4717 98.7602 23.6316C99.3846 23.7457 99.942 23.837 100.433 23.837C101.927 23.837 103.153 23.4946 104.022 22.7411C104.914 22.0105 105.383 21.0743 105.383 19.8642C105.383 19.0194 105.16 18.2659 104.669 17.6951C104.022 17.1472 103.22 16.5764 102.06 16.1197ZM113.031 10.5943C111.002 10.5943 109.374 11.2107 108.237 12.4209C107.1 13.631 106.52 15.2977 106.52 17.3983C106.52 19.3619 107.1 20.9602 108.214 22.1246C109.329 23.2662 110.846 23.8599 112.741 23.8599C114.725 23.8599 116.308 23.2434 117.446 22.0105C118.605 20.7775 119.163 19.1336 119.163 17.1015C119.163 15.0922 118.627 13.494 117.535 12.3295C116.487 11.1651 114.948 10.5943 113.031 10.5943ZM115.327 20.3209C114.792 21.0287 113.945 21.3712 112.897 21.3712C111.827 21.3712 111.002 21.0287 110.4 20.2752C109.798 19.5674 109.508 18.5399 109.508 17.2385C109.508 15.8914 109.82 14.8639 110.4 14.1333C111.002 13.4027 111.827 13.0373 112.875 13.0373C113.878 13.0373 114.703 13.3798 115.283 14.0876C115.862 14.7954 116.175 15.8229 116.175 17.17C116.175 18.5399 115.885 19.6131 115.327 20.3209ZM134.659 13.3113V10.8683H131.738V7.12375L131.649 7.14658L128.884 7.99138L128.817 8.01421V10.8683H124.447V9.26999C124.447 8.53936 124.625 7.96855 124.938 7.60323C125.25 7.23791 125.718 7.05525 126.298 7.05525C126.699 7.05525 127.123 7.14658 127.591 7.35207L127.703 7.42057V4.84051L127.636 4.81768C127.234 4.68068 126.699 4.58936 126.008 4.58936C125.138 4.58936 124.38 4.79485 123.689 5.13733C122.998 5.52548 122.485 6.05063 122.106 6.75843C121.727 7.4434 121.526 8.2197 121.526 9.11017V10.8683H119.497V13.2885H121.526V23.5174H124.447V13.3113H128.817V19.8186C128.817 22.4899 130.044 23.837 132.496 23.837C132.898 23.837 133.322 23.7686 133.723 23.7001C134.147 23.6087 134.459 23.4946 134.637 23.4032L134.659 23.3804V20.9373L134.548 21.0287C134.369 21.1428 134.213 21.2342 133.946 21.3027C133.723 21.3712 133.522 21.394 133.366 21.394C132.786 21.394 132.385 21.257 132.095 20.9145C131.828 20.5948 131.694 20.0697 131.694 19.2934V13.3113H134.659Z" fill="var(--fill-0, white)"/>
<path id="Vector_2" d="M0 0H13.6684V13.9962H0V0Z" fill="var(--fill-0, white)"/>
<path id="Vector_3" d="M15.0977 0H28.7661V13.9962H15.0977V0Z" fill="var(--fill-0, white)"/>
<path id="Vector_4" d="M0 15.4575H13.6684V29.4538H0V15.4575Z" fill="var(--fill-0, white)"/>
<path id="Vector_5" d="M15.0977 15.4575H28.7661V29.4538H15.0977V15.4575Z" fill="var(--fill-0, white)"/>
</g>
<defs>
<clipPath id="clip0_3_586">
<rect width="134.677" height="29.4538" fill="white"/>
</clipPath>
</defs>
</svg>
