<svg preserveAspectRatio="none" width="100%" height="100%" overflow="visible" style="display: block;" viewBox="0 0 72 58" fill="none" xmlns="http://www.w3.org/2000/svg">
<g id="12 columns (auto)" clip-path="url(#clip0_3_544)">
<path id="&#226;&#128;&#156;" d="M55.0062 58C51.1304 58 47.7019 56.5185 44.7205 53.5555C41.7391 50.5926 40.2485 46.1481 40.2485 40.2222C40.2485 31.6296 42.7081 23.6296 47.6273 16.2222C52.5466 8.81481 60.6708 3.40741 72 0V7.11111C67.528 8.59259 63.7267 10.5185 60.5963 12.8889C57.4658 15.2593 55.1553 17.8518 53.6646 20.6667C52.323 23.4815 51.6522 26.2222 51.6522 28.8889C51.6522 30.5185 52.1739 31.8519 53.2174 32.8889C54.2609 33.9259 55.528 34.8889 57.0186 35.7778C58.5093 36.5185 59.9255 37.4074 61.2671 38.4444C62.7578 39.3333 64.0248 40.5185 65.0683 42C66.1118 43.3333 66.6335 45.1852 66.6335 47.5555C66.6335 50.963 65.441 53.5555 63.0559 55.3333C60.8199 57.1111 58.1367 58 55.0062 58ZM14.7578 58C10.882 58 7.45342 56.5185 4.47205 53.5555C1.49068 50.5926 0 46.1481 0 40.2222C0 31.6296 2.45963 23.6296 7.37888 16.2222C12.2981 8.81481 20.4969 3.40741 31.9752 0V7.11111C27.354 8.59259 23.4783 10.5185 20.3478 12.8889C17.3665 15.2593 15.1304 17.8518 13.6398 20.6667C12.1491 23.4815 11.4037 26.2222 11.4037 28.8889C11.4037 30.5185 11.9255 31.8519 12.9689 32.8889C14.0124 33.9259 15.2795 34.8889 16.7702 35.7778C18.2609 36.5185 19.677 37.4074 21.0186 38.4444C22.5093 39.3333 23.7764 40.5185 24.8199 42C25.8634 43.3333 26.3851 45.1852 26.3851 47.5555C26.3851 50.963 25.2671 53.5555 23.0311 55.3333C20.795 57.1111 18.0373 58 14.7578 58Z" fill="var(--fill-0, #E30513)"/>
</g>
<defs>
<clipPath id="clip0_3_544">
<rect width="72" height="58" fill="white"/>
</clipPath>
</defs>
</svg>
