<svg preserveAspectRatio="none" width="100%" height="100%" overflow="visible" style="display: block;" viewBox="0 0 204.12 80" fill="none" xmlns="http://www.w3.org/2000/svg">
<g id="image 1 [Vectorized]" clip-path="url(#clip0_2_577)">
<path id="Vector" d="M47.924 8.50685C50.7645 8.40029 53.5946 8.52908 56.5143 8.47332C60.9996 8.38767 69.0523 7.91619 70.408 13.6627C71.5946 18.6929 68.2704 22.1041 63.4808 23.223L68.3751 29.7647C70.9285 33.2213 71.7346 35.6004 76.3673 36.1886L76.3451 37.6586C74.2701 37.5114 70.6639 37.6333 68.4815 37.6409C67.5675 36.404 66.6184 34.8724 65.7689 33.5689C64.1581 31.114 61.0119 26.6874 59.125 24.4595L56.2201 24.4784C56.2682 26.1766 55.8835 34.4033 56.6995 35.2664C57.4816 36.0938 59.2312 36.047 60.2933 36.0855L60.3092 37.6504C58.8867 37.5761 57.1183 37.6261 55.6642 37.6255C53.0616 37.6145 50.459 37.6218 47.8564 37.6474C47.866 37.1589 47.9043 36.6166 47.9283 36.1239C48.8342 36.052 50.4226 35.9866 51.1147 35.428C52.0636 34.662 51.8179 31.5687 51.8187 30.3573L51.8191 24.8349L51.8155 17.2426C51.8158 16.0218 51.9946 12.1824 51.4198 11.0776C51.0297 10.3279 48.8059 10.0916 47.8772 9.97864C47.8713 9.59179 47.8338 8.84723 47.924 8.50685ZM56.2274 22.6439C59.0822 22.6454 61.4277 22.9345 63.6279 20.7654C65.8046 18.1249 66.3999 13.9504 63.6012 11.4327C61.8095 9.82096 58.5453 10.1541 56.2241 10.1665C56.247 12.8873 56.2539 15.6082 56.2448 18.3291C56.2443 19.5737 56.3032 21.4392 56.2274 22.6439Z" fill="var(--fill-0, white)"/>
<path id="Vector_2" d="M128.512 16.8674C131.128 16.4354 135.441 17.2657 136.343 20.1782C137.359 23.4601 136.661 27.8616 136.757 31.3133C136.807 33.1344 136.281 34.5438 137.949 35.743C138.489 35.8586 139.667 35.8917 140.263 35.9246L140.277 37.1862C137.397 38.5067 134.029 38.7301 133.03 35.0671C130.717 37.3812 128.271 38.6099 124.928 37.9556C123.509 37.678 122.476 36.7748 121.727 35.5783C120.748 33.5597 121.012 30.7022 122.683 29.1241C124.348 27.5521 126.315 27.1578 128.386 26.4199C129.914 25.8755 131.499 25.3118 132.971 24.6474C132.958 23.0353 133.095 21.2897 132.173 19.8948C130.751 17.7414 128.131 17.9824 126.209 19.2472C126.405 20.368 126.597 21.1722 126.649 22.3195C125.501 24.7866 122.511 24.2745 122.189 21.9995C121.728 18.732 126.228 17.2181 128.512 16.8674ZM126.276 35.1298C128.652 36.7087 131.238 35.5006 132.881 33.4765C132.904 32.7417 133.055 26.7088 132.949 26.4393C129.766 27.3313 125.261 28.6797 125.353 32.7251C125.375 33.7241 125.574 34.3693 126.276 35.1298Z" fill="var(--fill-0, white)"/>
<path id="Vector_3" d="M85.0741 16.8723C87.0124 16.429 90.3714 17.2833 91.8612 18.6873C94.2737 20.9608 94.3458 23.8106 94.495 26.8773C93.1931 26.8001 91.237 26.8622 89.8964 26.8625L81.0003 26.8635C81.1311 29.7843 81.4117 32.8073 83.9497 34.7507C85.3439 35.8184 87.0353 36.003 88.7361 35.7738C90.5812 35.5252 91.5818 34.5688 92.6482 33.1258C92.9126 32.7457 93.1622 32.3386 93.4105 31.9466L94.912 32.8012C93.1522 35.737 91.2015 37.6204 87.6404 38.0433C85.2081 38.3706 82.4393 37.8177 80.5027 36.2213C74.246 31.0631 76.2187 17.8123 85.0741 16.8723ZM80.9955 25.1099C82.4852 25.0967 83.9751 25.0926 85.4649 25.0977L90.3111 25.0993C90.0986 21.9319 89.9499 18.6074 86.0162 18.3678C82.1155 18.9158 81.4094 21.6446 80.9955 25.1099Z" fill="var(--fill-0, white)"/>
<path id="Vector_4" d="M155.626 16.7804C161.805 16.6422 161.685 22.0925 161.677 26.6244L161.661 32.6973C161.659 35.4105 161.613 35.8601 164.631 36.2908L164.64 37.6562C162.474 37.5434 160.014 37.6883 157.828 37.6321C156.915 37.6087 155.645 37.7038 154.77 37.5619C154.585 37.4272 154.543 37.2357 154.466 37.0212C154.646 35.6001 157.636 36.4993 157.664 34.6983C157.678 31.0351 157.733 27.3546 157.669 23.6912C157.569 17.8803 151.805 18.2772 149.062 22.2387L149.017 23.4054L149.002 30.2366C149 31.4826 148.977 32.7006 149.041 33.9454C149.145 35.9285 150.594 35.9782 152.163 36.2447L152.177 37.6529C149.191 37.5405 145.172 37.5862 142.166 37.6558L142.174 36.2666C144.225 36.0061 145.111 36.1256 145.14 33.7037C145.185 30.0713 145.146 26.4325 145.152 22.8002C145.156 20.2822 144.708 19.0816 141.918 18.9922L141.925 17.5915C144.184 17.4245 146.734 17.1943 148.975 17.128C149.028 18.2221 149.01 19.2051 148.989 20.3016C149.368 19.9983 150.009 19.3395 150.401 18.9875C152.091 17.4661 153.408 16.9606 155.626 16.7804Z" fill="var(--fill-0, white)"/>
<path id="Vector_5" d="M15.4865 48.7819C17.1335 46.1717 17.9344 44.0627 20.8559 42.5115C22.307 41.741 23.0133 41.4681 24.6434 41.0719C29.0205 40.0082 34.8285 40.39 39.2004 41.3776C35.5624 41.6629 32.3755 42.9296 29.4779 45.067C26.3456 47.3777 23.1374 48.7255 19.2613 49.0602C18.4183 49.1331 17.3372 49.2028 16.5084 49.3566C16.2155 49.6526 15.9141 49.9482 15.6415 50.2624C15.599 51.5419 15.7568 55.5943 15.8942 56.9237L16.0797 56.8914L16.1286 56.9971C15.9513 57.2501 15.9417 57.2999 15.9956 57.5867C16.2795 57.5103 16.7969 56.75 17.0808 56.4918C18.2742 55.4062 20.2973 54.7985 21.8602 54.8005C21.9799 54.8259 22.3868 54.7982 22.5341 54.7917C22.7888 54.6363 22.7121 54.7291 22.8153 54.436L22.7057 54.3692L22.8028 54.2383C23.237 54.3241 24.5774 54.7962 25.1107 54.9558C22.724 55.4857 21.5564 56.6673 19.4038 57.4973C18.5946 57.8093 17.1581 57.6821 16.188 57.8551C15.9951 58.5754 16.1532 60.8394 16.1983 61.6728C16.436 66.0792 16.6516 72.326 14.3781 76.2966C14.4359 75.9621 14.542 75.621 14.6056 75.2823C15.8211 68.8114 14.6909 62.2229 14.5486 55.71C14.5251 54.6325 14.5273 53.4936 14.4359 52.4325L14.481 52.3308C14.4854 52.3124 14.4899 52.294 14.4943 52.2757C14.5979 49.6853 14.7302 47.1536 15.3515 44.6177C15.4686 44.1397 15.7449 42.5529 16.11 42.2812C16.188 42.5127 16.1537 42.5274 16.0921 42.7777C15.6117 44.7281 15.8138 46.8294 15.4865 48.7819ZM15.4965 50.057C16.2764 48.9664 17.0017 48.0043 18.0244 47.1112C20.5322 44.921 24.4948 43.1361 27.7348 42.4849C28.2936 42.313 29.9336 42.0467 30.585 41.9213L30.5628 41.8198L30.7131 41.8745L30.6614 41.9094L30.5284 41.831C29.723 41.84 28.4411 42.0233 27.6819 42.3016C22.9542 43.1524 19.0071 45.49 15.609 48.8106C15.5861 49.2737 15.5656 49.595 15.4965 50.057Z" fill="var(--fill-0, #00AA5B)"/>
<path id="Vector_6" d="M15.6088 48.8106C19.0069 45.49 22.9539 43.1524 27.6817 42.3016L27.7346 42.4849C24.4946 43.136 20.532 44.921 18.0242 47.1111C17.0015 48.0043 16.2762 48.9664 15.4963 50.057C15.5654 49.595 15.5859 49.2737 15.6088 48.8106Z" fill="var(--fill-0, #007138)" fill-opacity="0.0666667"/>
<path id="Vector_7" d="M27.6817 42.3016C28.4409 42.0233 29.7228 41.84 30.5282 41.8309L30.6612 41.9093L30.7129 41.8745L30.5626 41.8198L30.5848 41.9213C29.9334 42.0467 28.2934 42.313 27.7346 42.4849L27.6817 42.3016Z" fill="var(--fill-0, #00AA5B)" fill-opacity="0.360784"/>
<path id="Vector_8" d="M175.541 16.8694C178.171 16.5164 181.072 17.2111 182.638 19.5146C183.73 21.1189 183.971 24.6623 181.282 24.7077C177.789 24.7668 178.67 21.6098 179.267 19.4675C177.338 17.1902 173.894 18.5277 172.585 21.0028C169.866 26.1427 171.136 38.0109 179.43 35.5113C181.239 34.7102 182.131 33.6275 183.22 32.0274L184.587 32.851C184.31 33.3278 184.006 33.7888 183.677 34.2318C180.661 38.2198 175.012 39.5718 170.837 36.4768C166.241 33.0707 165.85 24.8873 169.299 20.4598C170.815 18.4752 173.063 17.1817 175.541 16.8694Z" fill="var(--fill-0, white)"/>
<path id="Vector_9" d="M102.595 8.51548C103.333 8.47104 103.384 8.65693 103.386 9.34914L103.401 25.7723C103.406 28.5035 103.396 31.2304 103.456 33.9614C103.501 36.0091 104.645 36.0057 106.345 36.3046L106.334 37.66C103.549 37.5173 99.5619 37.6223 96.7365 37.6489L96.7456 36.3067C97.0106 36.2825 97.2753 36.2556 97.5396 36.2259C99.4021 36.0136 99.6507 35.5296 99.6709 33.7392C99.6868 32.3651 99.635 30.9854 99.6069 29.6116L99.4902 22.4073L99.4491 16.5101C99.4382 14.9847 99.4609 13.3048 99.2111 11.806C99.129 11.3133 99.0339 10.6059 98.5992 10.3585C97.9091 9.96588 96.6375 10.2528 95.8975 10.399L95.9563 8.85827C97.9319 8.84587 100.56 8.61479 102.595 8.51548Z" fill="var(--fill-0, white)"/>
<path id="Vector_10" d="M114.988 17.2838L115.372 17.3242C115.766 17.6607 115.617 19.8198 115.616 20.4497L115.607 29.3107C115.606 30.8831 115.593 32.4445 115.638 34.017C115.693 35.8627 117.098 35.9649 118.561 36.2429L118.572 37.6584C116.048 37.4964 111.521 37.6287 108.868 37.6409C108.68 37.4379 108.777 36.5865 108.795 36.3032C109.644 36.2467 111.648 35.9902 111.663 34.9448C111.69 33.0684 112.12 21.4409 111.403 20.4793L111.369 20.4329C110.549 19.341 109.44 19.2124 108.175 19.0903L108.159 17.7363C110.206 17.5114 112.896 17.3955 114.988 17.2838Z" fill="var(--fill-0, white)"/>
<path id="Vector_11" d="M95.6929 45.3737L96.0884 45.3286L96.1309 45.353C96.4925 45.5605 96.3976 46.0648 96.3956 46.5027L96.3927 54.2531C96.392 54.953 96.307 56.9181 96.3501 57.4715C96.3631 57.657 96.4129 57.8381 96.4969 58.0041C96.8927 58.7996 97.7847 58.6991 98.0299 59.0843L97.907 59.2383C97.392 59.444 95.4262 59.5395 94.8117 59.5491C94.4825 59.2759 94.7922 59.1202 94.4959 58.7551C93.952 58.8103 93.3749 59.5471 92.5957 59.6956C91.4414 59.9156 90.5952 59.5546 89.6515 58.9794C89.1289 58.46 88.8121 57.9989 88.5026 57.3226C87.9057 56.0144 87.8555 54.5223 88.3633 53.177C89.4072 50.4147 91.917 49.7375 94.5385 50.7452C94.466 49.5533 94.7336 48.1662 94.4568 47.0108C94.3844 46.7086 92.8221 46.2188 92.4651 45.8105L92.4967 45.6651C92.9091 45.5034 95.1122 45.4105 95.6929 45.3737ZM92.6767 58.8284C93.6523 58.6225 93.8503 58.4267 94.5877 57.7426C94.4683 55.3709 95.5399 50.7143 92.0661 51.0211L92.0184 51.0255C89.4299 52.4329 89.0517 57.4311 91.9911 58.6621C92.1433 58.7259 92.4984 58.7892 92.6767 58.8284Z" fill="var(--fill-0, #00AA5B)"/>
<path id="Vector_12" d="M16.299 23.4863C16.409 23.6052 16.745 25.4751 16.8937 25.844C19.222 31.6174 21.7004 35.4717 16.3622 40.846C15.4244 39.972 14.1785 38.2078 13.6277 37.0713C11.7939 33.2876 13.6789 31.0892 14.9919 27.6185C15.5027 26.2684 15.8225 24.8486 16.299 23.4863Z" fill="var(--fill-0, #D2AE6E)"/>
<path id="Vector_13" d="M123.394 50.3261C124.473 50.2689 125.628 50.3041 126.53 50.9319C129.834 53.2316 129.157 58.6804 125.077 59.6503C119.01 60.8371 117.509 51.6645 123.394 50.3261ZM124.707 59.0587C125.681 58.4494 126.219 57.7428 126.443 56.609C126.869 54.4583 126.674 50.6359 123.572 51.0274C123.084 51.2649 122.695 51.4853 122.417 51.9748C121.145 54.2145 121.16 59.1979 124.707 59.0587Z" fill="var(--fill-0, #00AA5B)"/>
<path id="Vector_14" d="M192.264 50.3287C193.53 50.2624 194.304 50.2582 195.457 50.9381C197.744 52.2866 198.013 55.7231 196.738 57.8411C196.11 58.8834 195.129 59.4051 193.948 59.6645C188.001 60.8806 186.427 51.7066 192.264 50.3287ZM193.657 59.0409C194.561 58.487 195.117 57.8071 195.328 56.7561C195.77 54.5541 195.677 50.589 192.449 51.0374C190.263 52.1205 190.215 55.6766 191.097 57.654C191.608 58.8002 192.484 59.1206 193.657 59.0409Z" fill="var(--fill-0, #00AA5B)"/>
<path id="Vector_15" d="M181.175 50.3353C182.245 50.264 183.35 50.281 184.265 50.8707C187.69 53.0773 187.026 58.5958 182.966 59.6406C176.917 60.8943 175.333 51.7162 181.175 50.3353ZM182.506 59.0508C183.717 58.3737 184.22 57.4359 184.373 56.0905C184.617 53.925 184.317 50.6837 181.384 51.022C180.571 51.4223 180.069 51.9567 179.821 52.848C179.203 55.0699 179.232 59.2494 182.506 59.0508Z" fill="var(--fill-0, #00AA5B)"/>
<path id="Vector_16" d="M61.2506 50.3424C62.3298 50.2696 63.4492 50.2618 64.369 50.8641C67.782 53.0993 67.1375 58.5815 63.0679 59.645C57.0485 60.8403 55.4441 51.8599 61.2506 50.3424ZM62.6739 59.0363C63.579 58.5125 64.091 57.8934 64.3296 56.8659C64.8383 54.675 64.7239 50.5905 61.4902 51.0284C60.4163 51.5749 59.928 52.421 59.757 53.5855C59.4269 55.8348 59.6094 59.2452 62.6739 59.0363Z" fill="var(--fill-0, #00AA5B)"/>
<path id="Vector_17" d="M167.947 45.3733C168.193 45.3194 168.237 45.3054 168.49 45.3675C168.781 45.8192 168.653 50.9129 168.6 51.7801C168.795 51.5868 169 51.402 169.212 51.2259C170.15 50.4374 170.854 50.2424 171.994 50.3142C175.657 50.5453 173.556 56.2685 174.394 58.4929C174.491 58.7515 175.17 58.7494 175.509 59.1549L175.467 59.3192C174.885 59.6857 171.426 59.7244 170.951 59.2947L171.007 59.1256C171.402 58.8225 171.83 58.7919 172.322 58.7047C172.41 57.4806 172.541 53.1316 172.174 52.1742C171.71 51.5791 171.242 51.2825 170.455 51.4277C167.841 51.9096 168.816 54.1148 168.622 56.0259C168.559 56.641 168.645 57.6878 168.739 58.3014C168.821 58.835 169.884 58.7529 170.029 59.3688L169.92 59.485C169.419 59.5614 166.053 59.5996 165.542 59.5127L165.416 59.3335C165.443 58.6299 166.128 59.0764 166.691 58.5237C166.745 58.3924 166.809 58.2029 166.808 58.0621C166.794 54.4847 166.772 50.9034 166.832 47.3283C166.845 46.5883 165.602 46.3176 165.119 45.9694L165.095 45.7613C165.49 45.4303 167.353 45.4075 167.947 45.3733Z" fill="var(--fill-0, #00AA5B)"/>
<path id="Vector_18" d="M148.501 46.3466C150.163 46.1779 150.369 46.5663 151.864 47.0228C152.088 47.091 152.382 46.7236 152.722 46.4906C153.038 46.4721 152.92 46.4356 153.168 46.6251C153.306 47.4641 153.353 50.0647 153.192 50.8764L152.975 50.9847C152.312 50.7493 151.82 48.5452 150.708 47.6417C149.218 46.4307 146.748 47.3794 147.037 49.3262C147.503 52.473 153.506 51.6201 153.807 55.2588C154.033 57.9922 152.333 59.455 149.77 59.7548C148.236 59.7782 147.616 59.4187 146.169 59.0708C146.225 59.0842 145.644 59.5486 145.436 59.6152C145.105 59.5603 145.169 59.6233 144.993 59.4105C144.869 58.6091 144.847 56.0619 144.939 55.1608C144.95 55.0564 145.139 54.9928 145.235 54.9496C145.923 55.2498 146.39 57.6527 147.823 58.4498C149.428 59.6609 152.737 58.6661 151.89 56.1581C150.67 52.5438 142.897 53.9438 145.806 48.0173C146.284 47.0436 147.48 46.5881 148.501 46.3466Z" fill="var(--fill-0, #00AA5B)"/>
<path id="Vector_19" d="M47.7599 46.5709C50.8265 46.4367 54.783 46.5705 57.9498 46.5295C57.9541 47.1861 58.0846 49.4898 57.7118 49.8953L57.5083 49.8918C57.003 49.5049 56.4154 48.2932 55.9141 47.7665C55.2431 47.0615 52.608 47.3105 51.5577 47.3263C51.6474 48.9027 51.5948 50.8728 51.5946 52.4776C52.3246 52.4786 53.0247 52.4731 53.7541 52.415C54.8554 52.3272 54.9294 50.863 55.6626 50.314L55.827 50.3473C56.1283 50.9271 56.0081 54.0778 56.0025 54.9189C55.9586 55.4063 56.0385 55.2544 55.723 55.5789L55.5128 55.5803C55.02 55.1199 55.278 54.5379 54.6211 53.8206C53.9178 53.0527 52.6105 53.2617 51.5523 53.2231C51.639 54.6487 51.4188 56.742 51.7167 58.1196C51.7909 58.4621 53.2779 58.733 53.5518 59.3611C53.2817 59.6433 48.3677 59.6041 47.7455 59.4886L47.6514 59.3283C47.8186 58.5931 49.0464 58.9441 49.4902 58.2435C49.944 56.5098 49.265 51.0171 49.5646 48.9363C49.8055 47.2625 48.7131 47.668 47.819 47.1615C47.6482 46.847 47.6849 46.9707 47.7599 46.5709Z" fill="var(--fill-0, #00AA5B)"/>
<path id="Vector_20" d="M101.987 50.3321C107.516 49.9377 105.535 54.4114 105.829 57.9297C105.898 58.7517 106.828 58.5781 107.291 58.9106L107.311 59.1338C107.222 59.3496 107.042 59.6359 106.811 59.6792C105.586 59.9088 104.579 59.6277 104.092 58.52C102.597 59.8033 100.97 60.3834 99.299 58.9562C98.9591 58.4363 98.6902 57.4898 98.8563 56.8762C99.3892 54.9069 102.387 54.4316 104.095 53.8734C104.096 51.4226 103.605 50.6375 101.116 51.2568C101.212 51.8186 101.393 52.4441 101.11 52.9628C100.835 53.4693 100.285 53.5875 99.8112 53.2879C99.5616 53.1292 99.386 52.8773 99.3236 52.5884C99.0077 51.1807 100.974 50.5611 101.987 50.3321ZM101.24 58.5158C102.415 59.0115 103.181 58.4525 104.039 57.7025C104.047 57.2103 104.154 54.871 103.948 54.6052C102.437 55.1552 99.3067 56.4368 101.24 58.5158Z" fill="var(--fill-0, #00AA5B)"/>
<path id="Vector_21" d="M83.1528 50.3416C83.1964 50.3363 83.2401 50.3316 83.2839 50.3273C87.7739 49.8833 86.2602 55.6304 86.545 58.5779C86.9365 58.7009 87.7474 58.8366 87.6884 59.3328C87.0475 59.7306 84.1659 59.5342 83.2936 59.5019L83.2135 59.3916C83.5042 58.9663 84.5962 58.4577 84.6118 58.2903C84.7196 57.1376 84.6645 53.4725 84.5997 52.4908C83.577 50.8592 81.6406 51.1918 80.8815 52.7087C80.9092 54.3809 80.7924 56.9893 80.9773 58.5447C81.4116 58.71 81.8963 58.831 82.159 59.1945L82.1175 59.3737C81.5626 59.6867 78.5685 59.5784 77.8165 59.5191C77.6672 59.2971 77.6989 59.4047 77.744 59.0788C77.9947 58.7897 78.2581 58.8773 78.7715 58.6715C79.3773 58.1002 78.9396 53.5789 79.0598 52.5763C79.2224 51.2208 77.57 51.5595 77.6909 50.777C78.0705 50.4598 80.3949 50.2967 80.8486 50.6075C80.9842 50.9132 80.8863 51.4442 80.8515 51.7982C81.5842 51.0412 82.1148 50.5662 83.1528 50.3416Z" fill="var(--fill-0, #00AA5B)"/>
<path id="Vector_22" d="M134.764 50.3488C139.539 49.9553 137.883 55.2356 138.204 58.4842C138.619 58.6605 139.326 58.8465 139.377 59.3229C138.973 59.6519 135.522 59.6523 134.975 59.4441L134.895 59.2183C135.521 58.4051 136.513 59.4159 136.353 56.9617C136.276 55.7849 136.456 54.2857 136.296 53.0156C136.005 50.7021 133.63 51.1415 132.6 52.5727C132.483 53.1539 132.556 57.7315 132.602 58.4659C133.312 58.846 133.667 58.8993 134.459 59.4108C133.784 59.5681 130.319 59.6239 129.586 59.5149C129.402 59.2784 129.444 59.3895 129.422 59.0962C129.829 58.5964 130.975 59.148 130.782 57.4263C130.581 55.6431 131.057 53.5487 130.58 51.8441C130.508 51.5848 129.577 51.3357 129.311 50.9889L129.342 50.801C129.902 50.4997 131.738 50.3609 132.396 50.4225L132.505 50.5589C132.599 51.0249 132.533 51.3483 132.475 51.8162C133.224 51.1318 133.766 50.5759 134.764 50.3488Z" fill="var(--fill-0, #00AA5B)"/>
<path id="Vector_23" d="M75.1464 50.3643L75.2266 50.4147C75.4472 50.7545 75.3431 57.2689 75.3859 58.256C75.7905 58.4685 76.685 58.7941 76.6708 59.2698C76.3813 59.4418 74.2199 59.4984 73.6932 59.5419C73.4591 59.3031 73.5258 58.9052 73.5025 58.4852C73.1878 58.516 71.5764 60.0599 70.1764 59.832C66.4828 59.231 69.0153 53.096 67.7381 51.5237L67.7165 51.4974C67.2223 51.3621 66.9913 51.3627 66.6806 51.0038L66.7322 50.8227C67.3022 50.4545 69.1284 50.4044 69.8613 50.3506C69.9121 52.0501 69.4751 57.2386 70.4419 58.3422C70.6621 58.5936 70.96 58.7653 71.2984 58.7791C72.1658 58.8143 72.9659 58.0782 73.5545 57.5234C73.4762 55.844 73.5885 54.1097 73.5197 52.4197C73.4537 50.7954 71.8777 51.7042 71.8352 50.8585C72.2465 50.4603 74.4246 50.4201 75.1464 50.3643Z" fill="var(--fill-0, #00AA5B)"/>
<path id="Vector_24" d="M159.642 50.3244C160.633 50.2652 161.465 50.2635 162.372 50.7443C163.384 51.2803 163.795 52.6335 163.21 53.6244C162.74 53.9943 162.117 53.9785 161.677 53.5801C160.842 52.8245 162.351 50.6972 160.302 51.0018C157.569 51.4079 157.466 56.8549 159.435 58.2247C160.207 58.7625 160.794 58.7605 161.683 58.6461C162.374 58.2649 163.233 57.0679 163.812 57.2299L163.904 57.4612C163.416 59.4368 159.893 60.3912 158.262 59.2856C154.895 57.0045 155.534 51.4612 159.642 50.3244Z" fill="var(--fill-0, #00AA5B)"/>
<path id="Vector_25" d="M109.797 47.6641L110.683 47.6798C110.724 48.5384 110.721 49.72 110.668 50.5642C111.449 50.5271 112.721 50.3793 113.347 50.8632L113.338 51.1379C112.757 51.5992 111.448 51.4587 110.704 51.4311C110.765 53.4955 110.585 55.5613 110.798 57.6121C110.973 59.2907 112.838 58.0592 113.438 58.7177L113.367 59.1815C111.437 59.8612 108.861 60.4072 108.821 57.3715C108.795 55.4042 108.843 53.4209 108.838 51.4503C108.339 51.4589 107.236 51.6121 107.213 50.9099C107.682 50.3769 108.28 50.5099 108.949 50.522C108.959 49.5827 108.768 48.7203 109.046 47.8708C109.317 47.615 109.349 47.6927 109.797 47.6641Z" fill="var(--fill-0, #00AA5B)"/>
<path id="Vector_26" d="M110.365 71.9517C111.244 71.9546 111.359 72.1541 111.994 72.7294C112.277 72.7827 113.113 71.9666 113.682 71.8936C116.092 71.5844 115.243 75.5866 115.511 76.8989C115.525 76.9673 116.141 77.2704 116.262 77.3411L116.253 77.4949C115.586 77.6355 113.764 77.5447 113.052 77.4842C113.353 77.3253 113.795 77.178 114.167 76.9914C114.358 76.7209 115.275 70.8988 112.118 73.2474L112.12 76.9292L113.33 77.5218L111.817 77.5464C111.456 77.5638 110.555 77.6318 110.275 77.4594L110.307 77.2592C110.372 77.236 110.436 77.2108 110.499 77.1839C111.253 76.8626 111.042 75.0129 111.052 74.3515C111.059 73.5919 110.714 72.3094 109.695 72.6261C108.705 72.9341 108.699 74.386 108.728 75.2258C108.747 75.7649 108.681 76.4799 108.944 76.9473C109.019 77.0806 109.419 77.0427 109.597 77.3529L109.551 77.4851C108.861 77.6273 107.144 77.565 106.425 77.4922C106.818 77.2699 107.3 77.1203 107.73 76.969C107.656 75.7003 107.887 74.4057 107.602 73.246C107.444 72.6028 107.027 72.4701 106.453 72.1713C107.003 72.1442 108.376 71.9032 108.759 72.121C108.752 72.3407 108.75 72.5014 108.761 72.7229C109.233 72.7145 109.337 72.1424 110.365 71.9517Z" fill="var(--fill-0, white)"/>
<path id="Vector_27" d="M112.817 6.89626C113.769 6.69018 114.758 7.0142 115.404 7.74359C116.05 8.47298 116.251 9.49404 115.93 10.4137C115.61 11.3335 114.818 12.0084 113.858 12.1789C112.413 12.4357 111.028 11.4883 110.744 10.0484C110.461 8.60862 111.382 7.20676 112.817 6.89626Z" fill="var(--fill-0, white)"/>
<path id="Vector_28" d="M169.794 69.6898C171.262 69.6165 173.343 69.6793 174.912 69.6523C174.9 70.5195 174.873 71.221 174.804 72.0891C173.556 70.0316 173.48 70.0994 171.111 70.1708C171.126 71.2242 171.124 72.2776 171.104 73.331C173.798 73.1986 172.376 72.6628 173.549 71.8787C173.763 72.1744 173.808 74.6746 173.488 74.9577C173.166 74.792 172.898 74.1585 172.699 73.795C172.226 73.7538 171.593 73.7485 171.107 73.7299L171.119 75.5377C171.117 75.9562 171.068 76.5698 171.293 76.9032C171.728 77.1256 172.023 77.0746 172.478 77.1087C174.426 77.2547 174.412 76.2509 175.391 74.7968C175.486 75.633 175.387 76.7491 175.302 77.5954C173.164 77.3847 170.495 77.6906 168.292 77.4986C168.873 77.1484 169.185 77.2142 169.726 76.8306C170.025 76.3518 169.87 71.3544 169.832 70.4219C169.686 70.3681 169.542 70.3123 169.397 70.2547C169.111 70.1384 168.951 70.0923 168.846 69.8452C169.098 69.6504 169.465 69.6914 169.794 69.6898Z" fill="var(--fill-0, white)"/>
<path id="Vector_29" d="M116.57 50.4518L117.734 50.3484C117.772 52.2559 117.608 56.8117 117.83 58.46C118.226 58.7018 118.837 58.8081 118.98 59.2994L118.859 59.4544C118.327 59.6364 116.59 59.5608 115.939 59.5534C115.536 59.5574 115.134 59.5529 114.733 59.5398C114.568 59.3181 114.61 59.4235 114.598 59.117C114.94 58.7782 115.878 58.8173 115.889 58.3439C115.938 56.2853 115.994 54.1101 115.899 52.0554C115.885 51.7732 114.536 51.2478 114.336 50.8261L114.442 50.6999C115.044 50.5391 115.93 50.5009 116.57 50.4518Z" fill="var(--fill-0, #00AA5B)"/>
<path id="Vector_30" d="M121.116 71.9686C124.35 71.8277 122.957 74.7307 123.333 76.619C123.436 77.1288 124.002 76.9497 124.201 77.3176L124.042 77.5252C122.684 78.2011 122.535 76.9356 122.13 77.0491C121.256 77.2944 120.404 78.462 119.159 77.0015C118.466 74.8954 120.866 74.6065 122.298 74.0814C122.229 73.4797 121.897 71.9129 120.889 72.2864C120.136 72.565 120.801 73.6164 120.045 73.9558C119.773 73.9399 119.333 73.7145 119.326 73.4089C119.302 72.3187 120.288 72.1171 121.116 71.9686ZM120.632 77.1213C121.254 77.0159 121.685 76.8967 122.2 76.5099C122.213 75.9252 122.287 75.2581 122.172 74.686C122.104 74.6551 122.031 74.6074 121.956 74.6095C121.336 74.858 120.508 75.1569 120.234 75.8303C120.132 76.0805 120.164 76.374 120.274 76.6157C120.362 76.8138 120.482 76.9672 120.632 77.1213Z" fill="var(--fill-0, white)"/>
<path id="Vector_31" d="M66.8697 71.9723C70.1177 71.838 68.9537 74.4923 69.1296 76.5044C69.1748 77.0202 69.8789 76.9598 70.0502 77.3634C69.8824 77.5932 69.4495 77.6924 69.1668 77.712C68.6338 77.7486 68.5335 77.4548 68.2385 77.1421C67.8801 76.7622 66.9518 77.7302 66.5125 77.6889C65.8399 77.7019 65.5529 77.5136 65.068 77.1114C65.0495 77.0607 65.0317 77.0098 65.0147 76.9585C64.3363 74.919 66.7112 74.5514 68.1359 74.1227C68.0885 73.5256 67.8638 72.0204 66.8209 72.2721C66.1454 72.4351 66.4561 73.2173 66.1336 73.8365C65.8844 74.0362 65.9993 74.0025 65.7064 73.9809C65.4522 73.8291 65.3107 73.7713 65.1709 73.5104C65.0349 72.4662 66.08 72.1472 66.8697 71.9723ZM66.473 77.122C67.09 77.0228 67.5616 76.8797 68.0818 76.5115C68.0832 76.0795 68.207 74.9651 67.9845 74.6357L67.9032 74.6173C67.2766 74.8208 66.511 75.0405 66.1781 75.6686C66.0263 75.9551 66.028 76.2696 66.132 76.5711C66.2056 76.7846 66.3311 76.9497 66.473 77.122Z" fill="var(--fill-0, white)"/>
<path id="Vector_32" d="M195.659 71.9758C196.521 71.9958 196.751 72.0785 197.499 72.4743C198.051 73.3535 198.043 73.6554 198.188 74.6938L194.416 74.6952C194.774 76.8085 196.009 78.1817 197.761 76.1826C197.779 76.1569 197.906 76.0751 197.941 76.0511L198.14 76.1542L198.189 76.3425C197.412 77.6671 196.343 77.7677 194.953 77.5919C194.79 77.4855 194.595 77.3556 194.444 77.2343C193.834 76.7366 193.443 76.0199 193.355 75.2378C193.166 73.6502 193.935 72.1523 195.659 71.9758ZM194.391 74.198L196.071 74.2164L197.052 74.1834C196.94 73.6695 196.869 72.8215 196.378 72.5171C196.167 72.386 195.809 72.3313 195.561 72.3203C194.793 72.7745 194.613 73.33 194.403 74.1488L194.391 74.198Z" fill="var(--fill-0, white)"/>
<path id="Vector_33" d="M151.508 71.9697C153.573 72.1123 153.537 73.0309 153.923 74.6885C152.668 74.7074 151.365 74.6801 150.106 74.6703C150.427 76.7761 151.685 78.1928 153.416 76.1849L153.559 76.0667L153.745 76.1433L153.781 76.3756C153.427 77.2309 152.677 77.6095 151.79 77.6757C148.31 77.9357 147.932 72.2548 151.508 71.9697ZM150.083 74.1982L151.657 74.2171L152.734 74.1875C152.628 73.7105 152.558 73.059 152.235 72.6855C152.225 72.6744 152.216 72.6629 152.206 72.6518C151.999 72.4128 151.623 72.3693 151.327 72.3087C150.783 72.5923 150.471 72.8671 150.284 73.4654C150.209 73.7069 150.146 73.9529 150.083 74.1982Z" fill="var(--fill-0, white)"/>
<path id="Vector_34" d="M58.9096 72.0536C59.6427 71.9633 60.5218 71.9059 61.1534 72.3565C61.8863 72.8796 61.976 73.8797 62.1105 74.6935L58.341 74.681C58.5352 76.2667 59.4525 78.0159 61.2018 76.682C61.4063 76.4382 61.5358 76.2347 61.8366 76.1373L61.9574 76.2387C61.8257 77.0772 60.9491 77.6319 60.1436 77.6717C56.8013 77.8371 56.1876 73.4766 58.9096 72.0536ZM58.2916 74.203L59.9212 74.2182C60.2706 74.2129 60.4938 74.2675 60.7809 74.0477C60.8882 73.792 60.9343 73.5861 60.8233 73.3203C60.6977 73.019 60.4073 72.5673 60.0872 72.4494C59.9112 72.3845 59.7108 72.3491 59.5269 72.3125C59.0097 72.5587 58.7338 72.7944 58.5336 73.3405C58.4317 73.6184 58.364 73.916 58.2916 74.203Z" fill="var(--fill-0, white)"/>
<path id="Vector_35" d="M143.523 71.9577C143.586 71.9519 143.649 71.948 143.712 71.9458C146.176 71.8652 145.408 74.5662 145.438 76.1368C145.459 77.2238 145.748 76.819 146.353 77.4354L146.246 77.5149C145.567 77.5515 144.294 77.6192 143.66 77.4554L143.592 77.3389C143.763 77.122 144.124 77.0776 144.407 77.0099C144.39 75.9364 144.485 74.8523 144.366 73.787C144.2 72.3239 142.845 72.2772 142.111 73.3945C142.114 74.5622 142.11 75.73 142.099 76.8977L143.329 77.5108C142.683 77.5351 140.689 77.6946 140.198 77.4102C140.359 76.8722 140.998 77.5802 140.995 76.1515C140.993 75.054 140.973 73.907 140.942 72.8041C140.7 72.64 140.086 72.3442 139.799 72.1969C140.42 72.1273 141.443 71.9762 142.031 72.0443C142.187 72.2521 142.08 72.3932 142.081 72.7597C142.556 72.588 142.851 72.1215 143.523 71.9577Z" fill="var(--fill-0, white)"/>
<path id="Vector_36" d="M82.9211 71.952C83.0288 71.9449 83.1367 71.9418 83.2447 71.9429C85.298 71.9755 84.7582 75.4708 84.7319 76.8815L85.9039 77.5817C85.2811 77.5325 83.1175 77.6701 82.8117 77.4106C82.8752 77.1196 83.5355 77.1192 83.5749 76.904C83.7241 76.0894 83.7045 74.5396 83.6254 73.7465C83.4722 72.2113 82.1166 72.3473 81.3537 73.456C81.3814 74.3059 81.2788 76.1149 81.5163 76.9015C81.5734 77.0904 81.986 77.0239 82.2157 77.3994L82.1242 77.5033C81.3307 77.596 79.8344 77.5709 79.0389 77.5108C79.4655 77.2858 79.8659 77.0999 80.3035 76.8988C80.2502 75.672 80.4907 74.2841 80.1964 73.1865C80.0317 72.5717 79.5842 72.4465 79.0174 72.1682C79.4868 72.1402 81.0693 71.9104 81.3548 72.1202L81.3556 72.661C81.758 72.7369 82.0119 72.1466 82.8817 71.9601L82.9211 71.952Z" fill="var(--fill-0, white)"/>
<path id="Vector_37" d="M49.3661 69.6909C50.3523 69.6288 51.1508 69.6909 52.1187 69.7924C51.7272 70.0141 51.1795 70.1916 50.7488 70.3488C50.6643 72.4318 50.7045 74.8783 50.7458 76.9671C50.8279 76.9859 50.9105 77.0024 50.9935 77.0166C54.0328 77.5373 53.2049 76.1786 54.5542 75.235L54.68 75.2846C54.7531 75.8508 54.6869 76.5102 54.6483 77.0868C54.6437 77.2088 54.6092 77.3683 54.5865 77.4926C54.1855 77.6692 49.4838 77.5035 48.6761 77.5441C48.5264 77.5516 48.4453 77.4692 48.3678 77.3542C48.5454 77.1548 49.1907 76.9676 49.4761 76.8663C49.4825 74.8435 49.5317 72.4438 49.4181 70.4468C49.0323 70.2373 48.4096 69.9688 47.9963 69.7749C48.4201 69.7321 48.9341 69.7152 49.3661 69.6909Z" fill="var(--fill-0, white)"/>
<path id="Vector_38" d="M180.908 74.2477C181.135 73.9169 181.73 73.1144 181.817 72.778C181.673 72.5503 181.508 72.4339 181.303 72.2628L181.338 72.1314C181.797 72.0236 183.304 72.064 183.793 72.1155C182.354 72.8419 182.114 73.2759 181.111 74.5577C182.057 75.7877 182.515 76.6994 183.786 77.5767C183.295 77.5679 181.252 77.6071 180.969 77.4532L180.928 77.2932C181.124 77.1858 181.324 77.0833 181.525 76.986C181.466 76.5966 180.628 75.5731 180.357 75.2239C180.235 75.4833 179.73 76.1463 179.53 76.4414C179.027 77.1784 179.808 76.9437 179.945 77.5452C179.179 77.5189 178.332 77.5565 177.532 77.5386C178.981 76.593 179.107 76.356 180.153 74.9577C179.916 74.1176 178.462 72.6105 177.667 72.0982C178.15 72.0861 180.127 71.9714 180.441 72.1866C180.29 72.5921 179.98 72.4188 179.949 72.7945C180.229 73.2168 180.671 73.83 180.908 74.2477Z" fill="var(--fill-0, white)"/>
<path id="Vector_39" d="M101.406 69.6899C102.5 69.6412 103.34 69.6611 104.421 69.8181C103.873 70.0471 103.37 70.1775 102.8 70.3369C102.769 72.532 102.77 74.7275 102.805 76.9226C103.156 77.0009 103.775 77.0877 103.932 77.4169C103.683 77.5814 103.294 77.5386 102.982 77.5372C102.173 77.5626 101.293 77.6292 100.514 77.4307L100.464 77.2995C100.755 77.0553 101.174 77.0202 101.555 76.9491C101.57 74.7672 101.568 72.5852 101.546 70.4033C101.195 70.3033 100.593 70.1912 100.448 69.8537C100.803 69.6439 100.963 69.7059 101.406 69.6899Z" fill="var(--fill-0, white)"/>
<path id="Vector_40" d="M202.08 68.9802C202.323 68.9526 202.576 68.8901 202.777 69.0185C202.814 71.6365 202.758 74.2668 202.792 76.9007L203.902 77.5734C203.082 77.5285 202.227 77.5594 201.403 77.5748C201.174 77.5835 200.94 77.5286 200.83 77.3233C201.137 77.0042 201.286 77.2776 201.602 76.8869C201.719 75.9112 201.731 70.7594 201.515 69.863C201.354 69.6516 200.466 69.3436 200.15 69.2123C200.755 69.1029 201.46 69.0451 202.08 68.9802Z" fill="var(--fill-0, white)"/>
<path id="Vector_41" d="M188.588 71.9612C189.699 71.9551 190.989 72.8002 190.381 73.9086C190.08 74.1037 190.019 74.0971 189.657 74.1009C188.899 73.7281 189.504 73.2176 189.185 72.4404C188.994 72.3198 188.99 72.291 188.754 72.3264C186.9 72.6059 186.785 75.919 188.118 76.8386C188.593 77.1659 188.886 77.0785 189.409 76.9816C189.89 76.7435 190.186 76.159 190.658 76.0496V76.0476L190.766 76.1843C190.399 77.6131 188.925 77.6827 187.732 77.6522C185.237 76.4833 185.484 72.2392 188.588 71.9612Z" fill="var(--fill-0, white)"/>
<path id="Vector_42" d="M76.0346 71.9329C77.0948 72.1306 77.3626 73.1133 76.286 73.6231C76.0112 73.7532 75.8645 72.9423 75.4367 72.7395C75.1238 72.7242 74.8533 73.0024 74.5969 73.2057C74.5575 74.4606 74.5888 75.7269 74.6084 76.983C75.1374 77.1072 75.6032 77.283 76.1135 77.4653C75.593 77.5565 74.6861 77.5461 74.128 77.5558C73.7732 77.5716 72.9179 77.6791 72.7122 77.387C72.8254 77.31 73.4509 76.9043 73.4419 76.7372C73.3759 75.5085 73.8882 73.6425 73.0958 72.6137C73.0476 72.5511 72.3833 72.2352 72.2891 72.1909C72.9187 72.1222 73.8512 71.9877 74.4569 72.0374C74.7802 72.304 74.422 72.2726 74.6056 72.6815C75.0755 72.3624 75.4693 72.0466 76.0346 71.9329Z" fill="var(--fill-0, white)"/>
<path id="Vector_43" d="M135.598 72.0691C135.93 72.0117 136.306 72.0292 136.644 72.0149C136.626 73.6304 136.632 75.2463 136.661 76.8616L137.77 77.5525L136.12 77.5579C135.514 77.572 134.908 77.5448 134.302 77.5265C134.689 77.2817 135.133 77.1086 135.55 76.9188C135.552 75.6743 135.693 74.2488 135.487 73.026C135.308 72.6963 134.946 72.5485 134.629 72.3769L134.608 72.2546C134.867 72.0603 135.284 72.0883 135.598 72.0691Z" fill="var(--fill-0, white)"/>
<path id="Vector_44" d="M160.787 72.7966C161.57 72.5651 162.394 72.9991 162.646 73.7749C162.897 74.5508 162.485 75.3859 161.715 75.6574C161.199 75.8393 160.626 75.7273 160.216 75.3648C159.807 75.0023 159.626 74.4464 159.745 73.9128C159.863 73.3792 160.263 72.9518 160.787 72.7966Z" fill="var(--fill-0, #00AA5B)"/>
<path id="Vector_45" d="M92.4022 72.8102C93.1878 72.5559 94.0314 72.9835 94.2903 73.7673C94.5492 74.5512 94.1261 75.3968 93.3433 75.6599C92.5545 75.9253 91.7003 75.4982 91.4394 74.7081C91.1784 73.9182 91.6103 73.0667 92.4022 72.8102Z" fill="var(--fill-0, #00AA5B)"/>
<path id="Vector_46" d="M16.0791 56.8914C17.5476 54.3321 19.9299 53.3064 22.8022 54.2384L22.7051 54.3693L22.8147 54.436C22.7115 54.7291 22.7882 54.6364 22.5335 54.7918C22.3863 54.7983 21.9793 54.826 21.8596 54.8006L21.9715 54.6316C19.654 54.283 17.7764 55.6297 16.128 56.9971L16.0791 56.8914Z" fill="var(--fill-0, #00AA5B)" fill-opacity="0.984314"/>
<path id="Vector_47" d="M116.242 45.8068C116.651 45.6293 117.125 45.6881 117.479 45.9603C117.831 46.2325 118.01 46.6753 117.942 47.1163C117.875 47.5574 117.573 47.9271 117.155 48.0816C116.532 48.3117 115.839 48.0042 115.592 47.3881C115.344 46.772 115.633 46.0711 116.242 45.8068Z" fill="var(--fill-0, #00AA5B)"/>
<path id="Vector_48" d="M11.0595 48.6736C12.2854 50.3173 13.6465 50.7846 14.4809 52.3307L14.4358 52.4325C14.4144 52.4269 14.3603 52.4153 14.3357 52.3965C12.6634 51.1146 11.8263 50.5796 11.0595 48.6736Z" fill="var(--fill-0, #00AA5B)" fill-opacity="0.976471"/>
<path id="Vector_49" d="M16.1285 56.9971C17.7769 55.6296 19.6544 54.283 21.9719 54.6316L21.8601 54.8005C20.2972 54.7985 18.274 55.4063 17.0807 56.4918C16.7968 56.75 16.2794 57.5103 15.9954 57.5867C15.9416 57.3 15.9512 57.2501 16.1285 56.9971Z" fill="var(--fill-0, #00AA5B)" fill-opacity="0.141176"/>
<path id="Vector_50" d="M135.825 69.2016C136.086 69.1255 136.368 69.1979 136.561 69.3906C136.754 69.5832 136.825 69.8654 136.749 70.1268C136.673 70.3881 136.46 70.5869 136.194 70.6455C135.801 70.732 135.41 70.4915 135.311 70.1019C135.211 69.7124 135.438 69.3141 135.825 69.2016Z" fill="var(--fill-0, #364B9D)"/>
<path id="Vector_51" d="M19.0506 0H22.9773C24.2353 0.348979 25.5835 0.415031 27.0193 0.833125C43.7651 5.70575 47.4597 28.1882 33.1639 38.1442C31.7281 39.144 29.0919 39.067 27.94 37.7215C25.2332 34.5603 22.065 31.3938 19.4723 28.159C24.8712 29.2833 29.3578 22.9809 26.2398 18.268C24.7881 16.1914 22.1381 15.3778 19.7021 15.5118C14.6024 15.7923 10.8006 20.4361 10.0203 25.2397C9.13693 30.6778 10.2306 35.909 12.9113 40.67C11.6929 40.0159 10.4077 39.3496 9.27026 38.5703C5.25439 35.8468 2.28798 31.8355 0.860998 27.1991C0.47438 25.9189 0.303724 24.1025 0 23.1718V18.869C0.0674473 18.6428 0.126907 18.2891 0.158396 18.0475C1.26445 9.56158 8.03118 2.04518 16.5184 0.480153C17.3537 0.326144 18.2164 0.200006 19.0506 0Z" fill="var(--fill-0, #D2AE6E)"/>
<path id="Vector_52" d="M204.119 32.8578C202.261 35.8768 200.206 37.7971 196.521 38.0887C190.397 38.5732 186.695 34.6127 186.161 28.7012C185.659 23.1321 188.579 17.4728 194.571 16.8382C196.637 16.6193 199.376 17.181 200.976 18.5654C203.551 20.7951 203.496 23.826 203.712 26.8783C202.358 26.8077 200.484 26.8644 199.099 26.8642L190.228 26.8639C190.284 28.028 190.328 29.1033 190.548 30.249C191.281 34.0578 194.295 36.5823 198.244 35.7244C200.544 35.2244 201.445 33.808 202.652 31.9631L204.119 32.7742V32.8578ZM190.227 25.1089L194.7 25.0976L199.541 25.0996C199.321 21.9866 199.173 18.5726 195.26 18.3684C191.416 18.9077 190.57 21.6228 190.227 25.1089Z" fill="var(--fill-0, white)"/>
<path id="Vector_53" d="M204.119 64.8491L103.886 64.8517L66.4179 64.8511L54.1291 64.8521C52.3682 64.8524 50.5999 64.8501 48.8379 64.8818C48.4873 64.8881 48.0673 64.7938 47.7881 64.5607L47.7861 64.3843C48.0232 64.2253 48.4401 64.21 48.7265 64.2083C53.7094 64.1799 58.7039 64.1918 63.6862 64.1914L92.3829 64.1905L178.975 64.1885L195.335 64.1914C198.036 64.1952 201.504 64.3018 204.119 64.1788V64.8491Z" fill="var(--fill-0, #D2AE6E)"/>
<path id="Vector_54" d="M204.119 59.4956C203.182 59.5436 200.594 59.6199 199.737 59.5254C199.57 59.3147 199.62 59.411 199.573 59.1149C199.809 58.7812 200.389 58.8684 200.697 58.5951C200.933 58.3866 200.938 57.7255 200.947 57.4148C200.976 56.268 201.033 47.4788 200.783 47.0223C200.427 46.3724 199.603 46.4557 199.143 45.9705L199.157 45.7317C199.44 45.4882 202.069 45.3393 202.678 45.2742C202.884 47.8986 202.623 50.7805 202.72 53.4267C202.781 55.0888 202.62 56.8408 202.792 58.4961L204.119 59.1123V59.4956Z" fill="var(--fill-0, #00AA5B)"/>
<path id="Vector_55" d="M127.987 79.9999C124.94 78.542 127.681 77.7484 127.913 77.1765C127.571 76.8989 127.384 76.8714 127.267 76.4621C127.323 75.3824 128.341 75.619 127.747 75.0392C127.477 74.7754 127.118 74.4056 127.035 74.0505L127.022 73.9966C126.655 72.4472 128.434 71.7689 129.628 72.0269C130.348 72.1824 131.303 72.0336 131.88 72.2298L132.025 72.3916C131.884 72.8365 131.341 72.7187 130.92 72.716C130.861 73.14 131.47 74.2331 130.605 74.9708C129.841 75.6212 128.417 75.2099 128.083 75.9069C128.163 76.0958 128.312 76.3567 128.543 76.4012C129.786 76.6415 131.199 76.1512 131.94 77.5391C132.414 78.4253 131.731 79.215 130.967 79.6456C130.728 79.7796 130.31 79.9021 130.038 79.9999H127.987ZM130.192 79.5019C130.611 79.2641 131.059 78.9591 131.199 78.4691C131.226 78.3751 131.173 78.2319 131.152 78.134C130.861 77.7643 130.388 77.5458 129.923 77.4891C129.451 77.4315 128.912 77.4782 128.438 77.5155C128.108 77.722 127.774 78.0002 127.687 78.3997C127.649 78.568 127.678 78.7444 127.766 78.8919C127.981 79.2381 128.505 79.4655 128.89 79.5366C129.321 79.6188 129.766 79.607 130.192 79.5019ZM129.044 75.1042C129.397 75.0196 129.598 75.0039 129.798 74.6722C130.05 74.2535 130.104 73.737 129.978 73.269C129.894 72.9623 129.7 72.5585 129.407 72.4042C129.328 72.3627 129.245 72.3323 129.161 72.3035C128.81 72.4122 128.517 72.4954 128.333 72.8361C128.097 73.2749 128.012 73.8172 128.175 74.2942C128.269 74.5688 128.397 74.7676 128.605 74.967L129.044 75.1042Z" fill="var(--fill-0, white)"/>
</g>
<defs>
<clipPath id="clip0_2_577">
<rect width="204.12" height="80" fill="white"/>
</clipPath>
</defs>
</svg>
