<svg preserveAspectRatio="none" width="100%" height="100%" overflow="visible" style="display: block;" viewBox="0 0 56.5645 19.5597" fill="none" xmlns="http://www.w3.org/2000/svg">
<g id="Group">
<path id="Vector" d="M2.79555 11.8702V0H0V12.0195C0 16.5361 3.086 19.5223 7.07964 19.5223C9.04016 19.5223 10.7465 18.7384 12.0172 17.3946V19.1864H14.7765V0H11.9809V11.8702C11.9809 14.931 9.98411 16.984 7.40639 16.984C4.79237 16.9467 2.79555 14.9684 2.79555 11.8702ZM17.5357 19.2237H20.1861V17.4693C21.4205 18.7758 23.1631 19.5597 25.051 19.5597C29.0447 19.5597 32.2033 16.3122 32.2033 12.2434C32.2033 8.17474 29.0447 4.92724 25.051 4.92724C23.1631 4.92724 21.4568 5.71112 20.2224 7.01758V0H17.5357V19.2237ZM20.1861 12.2434C20.1861 9.51853 22.2918 7.39086 24.8695 7.39086C27.4472 7.39086 29.553 9.51853 29.553 12.2434C29.553 14.931 27.4472 17.096 24.8695 17.096C22.2555 17.096 20.1861 14.931 20.1861 12.2434ZM33.8007 12.2061C33.8007 16.3868 36.9594 19.5223 41.0256 19.5223C43.4944 19.5223 45.5275 18.4025 46.9072 16.5361L44.9466 15.043C43.9301 16.4241 42.5868 17.096 41.0256 17.096C38.7383 17.096 36.8867 15.379 36.5237 13.102H47.597V12.2061C47.597 8.02543 44.7288 4.92724 40.8078 4.92724C36.8141 4.92724 33.8007 8.24939 33.8007 12.2061ZM40.7352 7.35353C42.732 7.35353 44.4021 8.77198 44.874 10.937H36.56C37.0683 8.77198 38.7383 7.35353 40.7352 7.35353ZM56.5645 7.68948V5.11388H55.6206C54.132 5.11388 53.0428 5.8231 52.353 6.94293V5.22586H49.739V19.2237H52.4256V11.2356C52.4256 9.0706 53.6964 7.65215 55.4753 7.65215H56.5645V7.68948Z" fill="var(--fill-0, white)"/>
</g>
</svg>
